/* XPM */
static char *_6960f7519fa49e0be5625b634023159AEzaNBvaqjGdXvpW[] = {
/* columns rows colors chars-per-pixel */
"24 24 135 2 ",
"   c #020724",
".  c #010A26",
"X  c #010E28",
"o  c #02142D",
"O  c #0B162C",
"+  c #06182F",
"@  c #0C192E",
"#  c #11192B",
"$  c #1D1E2D",
"%  c #031730",
"&  c #031B33",
"*  c #0B1C32",
"=  c #111E31",
"-  c #062037",
";  c #0B2137",
":  c #0A243B",
">  c #0E293F",
",  c #122236",
"<  c #1C2434",
"1  c #1F2837",
"2  c #13263A",
"3  c #1A2738",
"4  c #13293D",
"5  c #1C2A3B",
"6  c #232633",
"7  c #232835",
"8  c #2D2B34",
"9  c #242D3B",
"0  c #2C2E39",
"q  c #312E36",
"w  c #25313E",
"e  c #29323F",
"r  c #3B3236",
"t  c #33343C",
"y  c #3C363A",
"u  c #36383F",
"i  c #3D393D",
"p  c #423739",
"a  c #43393D",
"s  c #483C3D",
"d  c #0E2A40",
"f  c #122C41",
"g  c #1A2E41",
"h  c #163246",
"j  c #1A3144",
"k  c #1C3749",
"l  c #1E3B4B",
"z  c #213444",
"x  c #2C3641",
"c  c #223847",
"v  c #283947",
"b  c #233B4B",
"n  c #293C4A",
"m  c #333A43",
"M  c #3B3E44",
"N  c #433F41",
"B  c #24424F",
"V  c #29424F",
"C  c #394147",
"Z  c #34414A",
"A  c #3C444B",
"S  c #274551",
"D  c #2B4551",
"F  c #2E4B56",
"G  c #2F4F59",
"H  c #334752",
"J  c #344A55",
"K  c #3C4C54",
"L  c #344F59",
"P  c #35535C",
"I  c #39575F",
"U  c #3C5C63",
"Y  c #3F6066",
"T  c #434246",
"R  c #4B4444",
"E  c #44464A",
"W  c #434A4E",
"Q  c #4B4A4A",
"!  c #554844",
"~  c #594D48",
"^  c #404C52",
"/  c #4A4D50",
"(  c #4B5152",
")  c #4F585C",
"_  c #545555",
"`  c #5C5753",
"'  c #5D5955",
"]  c #605751",
"[  c #625B56",
"{  c #635E59",
"}  c #6E6156",
"|  c #62605D",
" . c #6F6158",
".. c #6F695F",
"X. c #78675A",
"o. c #776D5F",
"O. c #7C6A5C",
"+. c #6A6660",
"@. c #6C6961",
"#. c #736D64",
"$. c #806E5F",
"%. c #877764",
"&. c #8C7762",
"*. c #847B6F",
"=. c #817B71",
"-. c #94826E",
";. c #8D8778",
":. c #928473",
">. c #998773",
",. c #928978",
"<. c #9E8D7C",
"1. c #9E907B",
"2. c #A48F7A",
"3. c #A0907D",
"4. c #AD967B",
"5. c #848680",
"6. c #949085",
"7. c #9A9485",
"8. c #AF9D85",
"9. c #A29C8B",
"0. c #A8A08D",
"q. c #B5A182",
"w. c #B7A68F",
"e. c #BFB29C",
"r. c #BFB6A1",
"t. c #CFAF87",
"y. c #D8B98F",
"u. c #C0AA91",
"i. c #C5B396",
"p. c #D0BB9E",
"a. c #D2BE9F",
"s. c #D8C19D",
"d. c #DFCAAF",
"f. c #E7D3B7",
"g. c #EFDDBF",
/* pixels */
"o o % & : d h l S G I U Y U I F B l h > - & % o ",
"o o % - : f h l S F P I U I P F B l h d : & % o ",
"o o % - : f h l B D J L P L F D b k h d : & % o ",
"o o % - : d h b b D J K K J H V b k h d : & % o ",
"o o & - : f j c Z W ` } } [ ( A n v h d : - % o ",
"o o & : : g z C ] 4.d.g.g.f.u.X.E v j f : - % o ",
"o % & - 4 j m $.p.>.:.w.w.<.:.a.2.T z f : - % o ",
"o % & : 4 x O.8.#.i.q.4.t.y.s.=.3.<.M g 4 - % o ",
"o + & : 5 R 1.| 4...5.) %.@.6.( *.:. .e 2 ; % o ",
"o o & ; w O._ -.} W r.K ^ e.' W &._ :.u 4 & % o ",
"o o % 2 t o.A Q C v 0.K 9.` m ~ Q { +.R 3 ; % o ",
"o o % , i [ M w g j ;.,.] 4 m N M Q / ~ 5 & % o ",
"o o % , y Q 9 2 : f #.{ 7.j > 9 y t A ! 3 * o o ",
"o o % * 0 E : ; : : ' 5 Q #.: : , ; C s , % o o ",
"X o + * 7 R 5 % & ; R 5 & T R & % , M q , % o o ",
"X X o % , y x * % * p < % + t < + 9 s 1 * o o X ",
". X o o * 1 a e * O $ + + + @ # 1 i q * % o X X ",
". . X o * * 7 p 9 = O O @ @ = 1 i q , % o o X . ",
". . X X o + * < r y 0 1 7 9 i s 6 * + + o X . . ",
". . . X X o + + * < 8 r r q 6 = * + o o X . . . ",
"  . . . X X o o o + + + @ + + + o o X X . . .   ",
"      . . . . X X X o o o o o X X X . . . .     ",
"        . . . . . . . . . . . . . . . .         ",
"          . . . . . . . . . . . . . .           "
};
