/* XPM */
static char *_041bfa5371c4fcc901244289adbbb15b1bE6vWx4isVZznR[] = {
/* columns rows colors chars-per-pixel */
"48 48 201 2 ",
"   c #020724",
".  c #010A26",
"X  c #010E28",
"o  c #02132C",
"O  c #0A162B",
"+  c #06182F",
"@  c #0B192E",
"#  c #131A2C",
"$  c #1A1C2B",
"%  c #021730",
"&  c #031B33",
"*  c #0B1D32",
"=  c #051F38",
"-  c #121E31",
";  c #062037",
":  c #0D2136",
">  c #062139",
",  c #0A243B",
"<  c #0D283F",
"1  c #142234",
"2  c #1B2535",
"3  c #1E2837",
"4  c #13263A",
"5  c #1A2638",
"6  c #14293E",
"7  c #1C2B3B",
"8  c #28222D",
"9  c #31282C",
"0  c #242634",
"q  c #252936",
"w  c #2D2B34",
"e  c #242D3B",
"r  c #2A2E3A",
"t  c #332D34",
"y  c #25313F",
"u  c #2C323D",
"i  c #363137",
"p  c #3B3136",
"a  c #33343C",
"s  c #3A353A",
"d  c #37393D",
"f  c #393A3E",
"g  c #423537",
"h  c #483837",
"j  c #443638",
"k  c #433B3D",
"l  c #4A3B3B",
"z  c #553B35",
"x  c #533E3B",
"c  c #4D403F",
"v  c #55423D",
"b  c #5B443C",
"n  c #0E2B41",
"m  c #122D42",
"M  c #192E41",
"N  c #163146",
"B  c #1B3345",
"V  c #1A3648",
"C  c #1E3A4A",
"Z  c #233443",
"A  c #2C3541",
"S  c #203847",
"D  c #2C3A45",
"F  c #233C4B",
"G  c #2B3D4A",
"H  c #333740",
"J  c #333B44",
"K  c #3C3D42",
"L  c #383F48",
"P  c #443E42",
"I  c #24414E",
"U  c #29414E",
"Y  c #374047",
"T  c #3E4147",
"R  c #33424C",
"E  c #3B434A",
"W  c #274450",
"Q  c #2A4551",
"!  c #2D4A55",
"~  c #2F4D58",
"^  c #344652",
"/  c #344B55",
"(  c #324C57",
")  c #3A4B53",
"_  c #324E59",
"`  c #344F59",
"'  c #2F5059",
"]  c #35515A",
"[  c #33525C",
"{  c #36555D",
"}  c #38565E",
"|  c #3A5961",
" . c #3D5D64",
".. c #3F6167",
"X. c #444345",
"o. c #4C4444",
"O. c #43464B",
"+. c #4B4649",
"@. c #45494D",
"#. c #4B4B4C",
"$. c #544642",
"%. c #594742",
"&. c #544946",
"*. c #5B4A43",
"=. c #534D4B",
"-. c #584E48",
";. c #55514D",
":. c #5D534D",
">. c #434D52",
",. c #4A4E51",
"<. c #435056",
"1. c #4B5154",
"2. c #455159",
"3. c #525353",
"4. c #5B5551",
"5. c #5E5A54",
"6. c #555B5B",
"7. c #5C5A59",
"8. c #624D43",
"9. c #695347",
"0. c #62524B",
"q. c #6B554A",
"w. c #71594A",
"e. c #605750",
"r. c #625A53",
"t. c #6C5D53",
"y. c #645F59",
"u. c #735E51",
"i. c #686157",
"p. c #66625C",
"a. c #6C645B",
"s. c #726154",
"d. c #776759",
"f. c #406168",
"g. c #536369",
"h. c #666866",
"j. c #736C62",
"k. c #706E69",
"l. c #7D7265",
"z. c #787269",
"x. c #6A7375",
"c. c #856C58",
"v. c #8D735C",
"b. c #93765E",
"n. c #847565",
"m. c #8A7665",
"M. c #887866",
"N. c #837C6D",
"B. c #8C7C6B",
"V. c #9D7C62",
"C. c #927E6A",
"Z. c #99846D",
"A. c #8D8373",
"S. c #8A867A",
"D. c #958978",
"F. c #A5866A",
"G. c #A38A72",
"H. c #A48E78",
"J. c #A3937D",
"K. c #AD9579",
"L. c #B79A7A",
"P. c #BEA17F",
"I. c #CFA97F",
"U. c #7B8180",
"Y. c #888A84",
"T. c #9D9483",
"R. c #A99C87",
"E. c #B79D82",
"W. c #ADA28D",
"Q. c #B9A489",
"!. c #AEA390",
"~. c #BAAB94",
"^. c #B4AD99",
"/. c #BFB5A2",
"(. c #C8AA89",
"). c #D1AE84",
"_. c #D6B48A",
"`. c #C4AE93",
"'. c #C9B396",
"]. c #C3B69D",
"[. c #D5BB95",
"{. c #DABE9A",
"}. c #C8BCA6",
"|. c #D6BAA0",
" X c #E8CA9B",
".X c #D5C4A8",
"XX c #DBC5AA",
"oX c #D7CDB3",
"OX c #DED5BD",
"+X c #E4CDA7",
"@X c #F0D8AA",
"#X c #E4CFB1",
"$X c #EBD8B6",
"%X c #F2DEBE",
"&X c #EEDEC4",
"*X c #EDE1C2",
"=X c #F5EAC6",
"-X c #F7ECC4",
";X c #F7ECD7",
":X c #FBF3DF",
">X c #FCF4E0",
/* pixels */
"X o o o % % = ; ; , n m N B C I W ! ~ [ { |  ...f... . .| { ' ! Q I C V N N n < , ; = & % o o o ",
"o o o o % % = ; , < m m N V C I W Q ~ [ { | |  . . . .| } { _ ! Q I F C B N m n , ; = = % % o o ",
"o o o % % = ; ; , < m m N V C F I Q ! ~ [ { } | | | } { ] _ ~ ! W I C V V N m n , , ; = = % o o ",
"o o o o % = ; ; , < n m N V C F I W Q ! _ _ ] { } { ] ] _ ( ! Q I I C V V N m < , , ; = & % % o ",
"o o o % % = ; ; , < n m N V C F F W Q Q ! _ ` ] ] ] ] _ ( ! Q Q I F C V N N m < , , ; = & % o o ",
"o o % % % = ; ; , < n m N B C C F I Q Q ! / ( / / / ( / / Q Q I I F C V N m m < , , ; = & % % o ",
"o o o % & = ; > , < n m N B C S F U U ^ ^ ) / / ) ) / / ^ ^ Q I F S C V N m m < , , ; = & % o o ",
"o o o % % = ; ; , < n m N B S S F G Q ) ^ ) 1.>.>.>.>.) ) ^ ) U F S C F N m m < , , ; = & % o o ",
"o o o % & = ; ; , < m m N B C F G R E @.1.y.5.r.r.5.y.3.,.>.>.R G F S G B N m n , , ; = & % o o ",
"o o o % & = ; ; , < m m B S Z G E O.=.e.s.c.V.F.F.V.b.d.t.4.#.@.R G G C B N m < , B ; = = % o o ",
"o o o % & = > , , n m m B Z D Y #.0.c.F.|.&X;X:X>X:X;X$X(.V.s.:.O.R D Z C M m 6 , , ; = & % o o ",
"o o o % & = 4 > , m M Z Z D @.=.u.E.&X*X$X+X{.[.[.[.+X$X%X=XXXF.r.#.O.D Z B m m , , ; = = % o o ",
"o o o % & = ; , , 6 M Z D T -.v.#X#XQ.Z.d.t.m.B.C.n.d.t.M.L.{.*X'.u.#.J Z B M m , , ; = = % + o ",
"o o o % % = ; 6 6 6 B Z K :.G.#X`.Z.:.j./.*X-X-X-X-X=XOXT.5.a.Q..XXXd.+.J Z J 6 < , > = = % + o ",
"o o o % & ; ; , 6 6 Z J &.G.[.E.5.5.}.$X X_.).)._.I._. X@X%XD.#.D.`.XXt.X.A Z M 6 6 > = = % o o ",
"o o o % % = > , 6 7 A X.c.].J.=.k.XX_.p.3.1.,.n.P.(.Q.L.L.Q.'.S.E n.W.'.0.X.Z Z 6 , > ; = % o o ",
"o o % % = = > , 7 y K 9.~.D.#.h.'.F.Z.E Y.^ <.h.C.Z.M.3.6.6.R E !.@.l.R.H.o.H y 6 , > = = % % o ",
"o o o % % = > 4 7 u o.G.D.5.,.~.K.m.d.R .X}.k.2.d.i.@.Y.%X~.R i.F.W.Y A.!.u.K A 6 7 > : = & % o ",
"o o o * * = > 4 y d 9.J.j.D T.G.b.5.3.G ].oX7.^ @.R U.#X~.T F ,.d.K.h.#.A.H.o.u 6 4 > = = % % o ",
"o o o % % = : 4 e k v.l.O.1.C.c.:.@.@.F ^.].3.F F x..XQ.0.B E ;.r.s.K.D j.D.0.d e 4 4 = = % + o ",
"o o o % % = : 7 u $.C.h.y z.:.X.;.J R C ^.W.,.C h.].R.0.m D +.-.;.#.d.,.#.z.d.f e 4 : * 4 % + o ",
"o o o % % * : 7 u %.l.7.7 a.K D J Z S B R.R.#.g.~.J.&.6 J o.q.*.&.J #.j.A a.m.k e 4 : = % % o o ",
"o o o * * = : 7 a w.p.,.B 5.u y Z B C M T.D.l.W.D.&.4 m +.K q.o.X.K K a.7 y.l.$.e 4 : = & % o o ",
"o o o % % & 1 7 a 9.4.T B o.7 7 6 m B m S.N.B.A.u.7 < m m a u u e o.f =.6 4.a.l e e : * % % o o ",
"o o o o * = : 5 i q.3.L 6 a 4 4 6 m m 6 N.l.j.N.~.x.m m < 6 6 u e q.8.K 4 ;.r.c e 1 ; = % % o o ",
"X o o o % & r 5 a *.@.Y 4 7 4 , , , 6 , z.j.d 7.l.~.2.< , , , u e e 7 A 4 #.:.l e 1 7 = * o o o ",
"X o o o % * * 5 r v O.Y ; : : > > , , , a.y.u 4 4.j.J.G , , ; 4 1 5 4 6 6 O.:.h e 1 * * % o o o ",
"X o o o % * * 1 q h +.T : * * = ; > , > r.4.a ; 5 =.a.m.6 ; ; ; = * : ; y T 0.s 3 1 * * % o o o ",
"X o o o o * * : 3 p *.L 7 = * = = = > * ;.&.d > = 3 +.r.t.> = = = & & * J H %.w 5 : * * o o o X ",
"X X o o + + 1 * 0 w %.J H * * % % & = * o.$.d : = % 0 X.:.l = = % % * 7 f X.l 0 1 : * % o o o X ",
"X X o o o o * * 1 0 g P A 4 * * % % * * k %.s : % % % 0 K o.3 % * * * e u *.i 3 * * * o o o o X ",
"X X X o o o o * * 5 w b A A * * * + + + j 9 i - % % % + 0 t p # @ + 4 u K h q 1 * * % o o o X X ",
". X X o o + o * * 1 q i o.A r * # @ + + z O o @ o o + + + O O + + : u u v i 3 1 * % * o o X X X ",
". X X X o o o o * * 1 q j k A e * @ $ o 9 o o O @ o + O O # 8 O 1 u u $.p q 1 * * % + o o X X X ",
". . X X X o + o * * * 5 q h k u e * + O o o o o o o + # $ O + 4 H e $.g q 1 * * + o o o X X X X ",
". . X X X o o o * + * * 2 w j l e e 7 @ + o O # # # O + + 1 r 7 a v i 0 1 * * * @ o o X X X X . ",
". . . X X X o o o o % * * 1 q j x s 3 7 e 5 - - 2 - 1 e e 3 e $.h w 0 1 * + + o o o o X X X . . ",
". . . X X X X o o O + * * * 1 2 w g x k r 5 1 5 r 5 5 e d 8.x h 0 2 - * * o * o o o X X X . . . ",
". . . . X X X X o o o o + * * * 1 0 w p h v b b 8.b b x j t q 2 1 * * * o o o o o X X X X . . . ",
"  . . . . X X X X o o o o o + + * * 1 2 0 w w t t w w 0 2 1 - * * + + + + o o X X X X X . . .   ",
"    . . . . X X X X X o o + o + + + @ * * - - 1 0 - - * * * * * O o o o o o X X X X X . . . .   ",
"      . . . . . X X X X o o o @ o + + + + + + * - + + + + + @ o o o o o X X X X X . . . . .     ",
"      . . . . . . X X X X X X X o o o o O o o o o o o o o o o o o X X X X X X . . . . . .       ",
"          . . . . . . . X X X X X X X X X X o o o o o o o X X X X X X X X X . . . . . . .       ",
"            . . . . . . . . X X X X X X X X X X X X X X X X X X X X . . . . . . . . .           ",
"                . . . . . . . . X X X X X X X X X X X X X X X X . . . . . . . . .               ",
"                    . . . . . . . . . . . . . . . . . . . . . . . . . . . .                     ",
"                    . . . . . . . . . . . . . . . . . . . . . . . . . . . .                     "
};
