/* XPM */
static char *da5ecef270344275918bc5bec1c4f814NBKrZT5rBk5HnGhR[] = {
/* columns rows colors chars-per-pixel */
"16 16 132 2 ",
"   c #010623",
".  c #020724",
"X  c #010B26",
"o  c #010C26",
"O  c #000F28",
"+  c #01112B",
"@  c #01122C",
"#  c #02162F",
"$  c #04142C",
"%  c #0A162C",
"&  c #0C172C",
"*  c #08182F",
"=  c #0E1B2F",
"-  c #111B2F",
";  c #011730",
":  c #011932",
">  c #041A32",
",  c #021B34",
"<  c #031C34",
"1  c #041F37",
"2  c #091B31",
"3  c #0C1B30",
"4  c #0C1E33",
"5  c #141E30",
"6  c #0F2236",
"7  c #052139",
"8  c #082239",
"9  c #0F2438",
"0  c #09253C",
"q  c #0D273C",
"w  c #0D293F",
"e  c #122235",
"r  c #132437",
"t  c #152436",
"y  c #1E2231",
"u  c #1F2533",
"i  c #162739",
"p  c #12273C",
"a  c #1A2A3B",
"s  c #1C2B3B",
"d  c #232835",
"f  c #282A35",
"g  c #2E2D36",
"h  c #202B3A",
"j  c #252C39",
"k  c #242E3C",
"l  c #302F38",
"z  c #2C303B",
"x  c #28303C",
"c  c #383137",
"v  c #373238",
"b  c #32353F",
"n  c #383338",
"m  c #3C3539",
"M  c #40393D",
"N  c #0D2940",
"B  c #112A40",
"V  c #122E43",
"C  c #172C40",
"Z  c #173447",
"A  c #183246",
"S  c #183447",
"D  c #1E3849",
"F  c #203242",
"G  c #253341",
"H  c #203545",
"J  c #243646",
"K  c #2E3641",
"L  c #273947",
"P  c #233C4B",
"I  c #333740",
"U  c #333A43",
"Y  c #453F41",
"T  c #23404D",
"R  c #24434F",
"E  c #28414E",
"W  c #3F4045",
"Q  c #3D454B",
"!  c #284551",
"~  c #2B4954",
"^  c #2D4955",
"/  c #314651",
"(  c #354651",
")  c #354953",
"_  c #3C4D54",
"`  c #314E59",
"'  c #31505A",
"]  c #35515A",
"[  c #37545C",
"{  c #3B5C63",
"}  c #3E5E65",
"|  c #474343",
" . c #444247",
".. c #49484A",
"X. c #4D4A4A",
"o. c #4C4E4F",
"O. c #504847",
"+. c #594F4B",
"@. c #4F595C",
"#. c #555452",
"$. c #5A5550",
"%. c #5C5754",
"&. c #5B5A57",
"*. c #5A5A58",
"=. c #61554E",
"-. c #625B56",
";. c #6F635A",
":. c #6A645F",
">. c #736658",
",. c #616461",
"<. c #696560",
"1. c #696862",
"2. c #6E706D",
"3. c #7F7266",
"4. c #77756E",
"5. c #747772",
"6. c #807A6D",
"7. c #8F7F6F",
"8. c #847D70",
"9. c #8D8273",
"0. c #948573",
"q. c #9F8A70",
"w. c #938A79",
"e. c #988A7A",
"r. c #A1927E",
"t. c #A69883",
"y. c #B39F87",
"u. c #BBA48C",
"i. c #BBA88F",
"p. c #BEA890",
"a. c #C2AF92",
"s. c #C4B195",
/* pixels */
"+ # 1 w S R ' { } [ ~ D V 8 : @ ",
"@ ; 7 N Z T ^ ] [ ` ! D V 0 , # ",
"@ : 7 w A P / _ _ ) E D V 0 , # ",
"@ : 8 B H Q 3.u.p.7.o.L C q < # ",
"@ : 8 C ..y.r.a.s.t.i.%.F q < # ",
"@ : 8 K 0.9.6.,.q.w.1.e.W p 1 # ",
"@ > 9 +.*.>.@.2.5.<.$.:.;.a 1 # ",
"@ > r =.Q G ( 8.&.U | ..-.s > # ",
"+ # t O.s 9 J #.4.w h x X.s > @ ",
"O # 4 M i 1 a I k  .1 6 Y e # + ",
"O + > d b 2 5 y : y = k l 2 @ O ",
"X O @ 2 g z 3 % & - j n 4 $ O o ",
"X o O $ 2 u c v n m f 2 $ + o X ",
". X X O + $ * 3 = * $ + O o X X ",
"  . X X o O O O O O O o X X . . ",
". . . . X X X X X X X X X . .   "
};
