/* XPM */
static char *e82e213aeeb94561a8530176d527df1agYN2ibherfJv1n4c[] = {
/* columns rows colors chars-per-pixel */
"32 32 173 2 ",
"   c #020724",
".  c #010A26",
"X  c #010E28",
"o  c #02132D",
"O  c #09162C",
"+  c #06182F",
"@  c #0D192E",
"#  c #12192C",
"$  c #021730",
"%  c #031A32",
"&  c #0A1D33",
"*  c #041F38",
"=  c #111E32",
"-  c #072037",
";  c #0D2136",
":  c #062139",
">  c #0A243B",
",  c #0D293E",
"<  c #132235",
"1  c #1B2434",
"2  c #14263A",
"3  c #1A2638",
"4  c #13293E",
"5  c #1C2A3B",
"6  c #222634",
"7  c #282733",
"8  c #222936",
"9  c #2B2B35",
"0  c #232D3B",
"q  c #292E3A",
"w  c #332D34",
"e  c #24303E",
"r  c #2B323D",
"t  c #343037",
"y  c #3C3337",
"u  c #32343C",
"i  c #3A363B",
"p  c #3B3A3F",
"a  c #423638",
"s  c #40393D",
"d  c #4B3C3B",
"f  c #503F3B",
"g  c #4D403F",
"h  c #51403E",
"j  c #0F2D41",
"k  c #122D42",
"l  c #182E41",
"z  c #163246",
"x  c #1C3345",
"c  c #1B3749",
"v  c #1C394A",
"b  c #223444",
"n  c #2B3441",
"m  c #263947",
"M  c #2D3945",
"N  c #223C4B",
"B  c #2C3E4B",
"V  c #333B43",
"C  c #3C3D43",
"Z  c #333E49",
"A  c #413E41",
"S  c #24414E",
"D  c #2B404F",
"F  c #3C4146",
"G  c #34424C",
"H  c #3A464C",
"J  c #3E494F",
"K  c #274350",
"L  c #2A4551",
"P  c #2D4A55",
"I  c #2F4F58",
"U  c #324752",
"Y  c #334B56",
"T  c #3B4C54",
"R  c #334E58",
"E  c #35535C",
"W  c #39575F",
"Q  c #3C5C63",
"!  c #454647",
"~  c #4B4243",
"^  c #4F4945",
"/  c #41464B",
"(  c #464A4E",
")  c #4D4B4B",
"_  c #534643",
"`  c #554945",
"'  c #584B46",
"]  c #544D4A",
"[  c #584E4C",
"{  c #55514E",
"}  c #5F554F",
"|  c #434D52",
" . c #494F52",
".. c #4C5253",
"X. c #535454",
"o. c #5C5651",
"O. c #555958",
"+. c #595C5B",
"@. c #665146",
"#. c #625049",
"$. c #6A564B",
"%. c #6D5B4F",
"&. c #635B53",
"*. c #6A5C53",
"=. c #605D58",
"-. c #64625E",
";. c #69625A",
":. c #726355",
">. c #70635B",
",. c #7A6759",
"<. c #746B5E",
"1. c #7B6D5F",
"2. c #406168",
"3. c #596467",
"4. c #6E6863",
"5. c #666C68",
"6. c #746D62",
"7. c #7E6F61",
"8. c #7E7263",
"9. c #76726A",
"0. c #667071",
"q. c #727771",
"w. c #7A7E7B",
"e. c #836C5C",
"r. c #897C6D",
"t. c #9A7D66",
"y. c #7C837D",
"u. c #96836C",
"i. c #9E866E",
"p. c #8C8272",
"a. c #85887F",
"s. c #928375",
"d. c #9B8773",
"f. c #9D8973",
"g. c #928678",
"h. c #958B79",
"j. c #9D907B",
"k. c #A2866B",
"l. c #A48E74",
"z. c #A1937D",
"x. c #AB937A",
"c. c #B09276",
"v. c #B49579",
"b. c #B69F7F",
"n. c #B99E7D",
"m. c #8C8D85",
"M. c #9C9483",
"N. c #959288",
"B. c #A89682",
"V. c #AA9E87",
"C. c #A99C89",
"Z. c #B7A088",
"A. c #BAA68D",
"S. c #AEA593",
"D. c #BDAE94",
"F. c #B9AE9B",
"G. c #C0AC94",
"H. c #C2B69F",
"J. c #CAB398",
"K. c #D3BEA1",
"L. c #E1C395",
"P. c #E2C698",
"I. c #E6C89B",
"U. c #DCC5A4",
"Y. c #DDC9A9",
"T. c #DFCCB0",
"R. c #E7CEA2",
"E. c #E4D1AD",
"W. c #EEDBB2",
"Q. c #EEDCBB",
"!. c #F1E0BF",
"~. c #EDDDC0",
"^. c #F2E3C6",
/* pixels */
"X o o $ % : > j z v S L I E Q Q 2.Q Q E I L S v z j > : % $ o o ",
"o o o $ : > , k z v S L I E W Q Q Q W E I L N v z k , > : % o o ",
"o o o $ : > , k z v N K P Y E E E E E Y P K N v z k , > * % $ o ",
"o o $ % : > , k z c N S L P Y R R R Y P L S N c z k , > * $ $ o ",
"o o $ % : > , k z c N N L U T T T T Y U L N N c z k , > : % $ o ",
"o o $ % : > , k z c m B H | X.X.X.X. .| T B N B z k , > : % $ o ",
"o o $ % : > j k x m B / { :.t.c.v.k.e.&.) H B b x k , 4 : % $ o ",
"o o $ % 4 > j x b Z ) e.J.~.!.Q.Q.Q.^.T.i.o./ m b l , > : % $ o ",
"o o $ * : , 4 x V ] x.Y.x.7.r.B.B.s.8.d.U.K.*.F b x 4 > : % $ o ",
"o o $ * ; 4 4 n ` Z.A.;.M.E.R.P.L.I.W.H.;.B.K.*.V b 4 4 - % $ o ",
"o o $ * ; 4 e C f.z.o.D.b.O. .-.n.n.l.f.M. .r.G.] n b ; : * $ $ ",
"o o $ * ; 4 r %.j.) C.i.<.m.N.| 8.&.m.F.J l.-.p.d.C 5 4 ; * $ $ ",
"o o & * ; 5 p u.=.9.k.&. .a.H.B H w.K.{ G :.x.( h.' e 2 ; * $ o ",
"o o $ * ; 0 ` 8.V 1.] H G y.C.c 0.D.} b ) { &.O.4.,.r 2 ; & $ o ",
"o o $ * ; q @.-.Z ! M n b q.h.3.V.] b ~ $.^ C ;.( 7.i 2 - $ $ o ",
"o o $ $ < q $.X.M V 5 l x 5.p.h.*., l r p n A ) Z ;.i 5 & $ o o ",
"o o o $ < q #.( 0 3 4 4 k +.6.6.S.D , 4 5 q @.p n o.i 2 & $ o o ",
"X o o $ < 8 _ / ; ; ; ; , ..=.5 ;.g.l > > 3 2 2 M ] s 2 & $ o o ",
"X o o $ & 3 d F 2 * * : ; / [ > 5 o.>.; : * & - C ' q < & $ o o ",
"X o o + & < y A r $ $ * ; C _ ; % 8 ] ~ % $ $ 2 V g 1 ; $ o o o ",
"X X o o $ & 8 d n & $ $ & 9 f & $ $ 8 C 1 $ $ 0 A t < & $ o o X ",
"X X o o + & 1 y A n & @ + w # + o o + # # + 3 u d 8 < $ + o X X ",
". X X o o $ & 3 y i r & @ # o o + o O # @ 5 r d 9 < $ o o o X X ",
". X X X o + $ & 1 a i 0 < + O # # @ O = 0 r d 9 < $ & o o X X X ",
". . X X o o + $ & 1 w d t 5 3 3 8 3 5 r d y 6 = $ $ o o X X X . ",
". . . X X o o + + & = 6 w d d d h d d a 7 1 & $ o o o X X X . . ",
"  . . . X X X o o o + & = 1 1 6 7 6 1 = & & o + + o X X X . .   ",
"    . . . X X X o o O + + + + + @ + + + + o o o X X X . . . .   ",
"      . . . . X X X X X o o o o o o o o o X X X X X . . . .     ",
"        . . . . . X X X X X X X X X X X X X X X . . . . .       ",
"          . . . . . . . . . . X X X X . . . . . . . .           ",
"              . . . . . . . . . . . . . . . . . .               "
};
