<?xml version="1.0" encoding="UTF-8"?>
<svg version="1.1" viewBox="0 0 1600 1600" width="1280" height="1280" xmlns="http://www.w3.org/2000/svg">
<path transform="translate(0)" d="m0 0h1600v1600h-1600v-1600z" fill="#000913"/>
<path transform="translate(807,373)" d="m0 0c27.7 3.03 27.7 3.03 34 7 0.33 0.99 0.66 1.98 1 3 2.88 1.15 2.88 1.15 6.31 2 4.3 1.16 7.2 2.28 10.7 5 2.32 0.394 4.66 0.735 7 1 0.33 0.33 0.66 0.66 1 1 2.18 0.235 4.37 0.414 6.56 0.562 1.2 0.0838 2.4 0.168 3.63 0.254 0.927 0.0606 1.85 0.121 2.81 0.184v2c0.664-0.0348 1.33-0.0696 2.01-0.105 8.83-0.271 8.83-0.271 13 3.11 0.66 0.66 1.32 1.32 2 2 1.88 0.0197 1.88 0.0197 4-0.375 9.88-1.28 16.8-0.43 26 3.38 2.29 0.856 4.58 1.71 6.88 2.56 5.24 1.96 9.62 3.89 13.6 7.94 3.46 3.38 6.55 5.37 11.4 5.69 0.701-0.0619 1.4-0.124 2.12-0.188 0.33 0.99 0.66 1.98 1 3 0.603-0.0838 1.21-0.168 1.83-0.254 1.2-0.153 1.2-0.153 2.42-0.309 0.789-0.104 1.58-0.209 2.39-0.316 3.46-0.178 6.09 0.79 9.36 1.88 0.33 0.66 0.66 1.32 1 2 2.36 0.468 2.36 0.468 5.06 0.625 0.919 0.0748 1.84 0.15 2.79 0.227 0.71 0.049 1.42 0.098 2.15 0.148v-2c-1.64-0.186-1.64-0.186-3.31-0.375-3.69-0.625-3.69-0.625-6.69-2.62v-2c0.626 0.156 1.25 0.312 1.9 0.473 0.817 0.195 1.63 0.389 2.48 0.59 1.22 0.296 1.22 0.296 2.46 0.598 2.21 0.561 2.21 0.561 4.16-0.66 2.36 0.891 2.36 0.891 5.19 2.25 0.98 0.463 1.96 0.926 2.97 1.4 0.938 0.445 1.88 0.889 2.84 1.35 2.32 1.02 4.66 2.01 7 3-0.186 0.763-0.371 1.53-0.562 2.31-0.666 2.78-0.666 2.78 0.562 5.69 1.76 0.984 1.76 0.984 3.88 1.62 0.699 0.24 1.4 0.48 2.12 0.727 0.994 0.321 0.994 0.321 2.01 0.648 0.99 0.33 1.98 0.66 3 1 1.36-0.588 1.36-0.588 2.75-1.19 3.25-0.812 3.25-0.812 6.62 0.938 0.576 0.382 1.15 0.763 1.75 1.16 3.12 1.81 6.37 2.36 9.88 3.09v2h2v2h2c1.6 3.12 2.19 4.39 1.12 7.81-0.371 0.722-0.742 1.44-1.12 2.19-0.33-0.66-0.66-1.32-1-2h-2c3.92 4.9 8.32 6.56 14.2 8.69 3.03 1.39 4.76 2.71 6.84 5.31v3c1.42 0.911 2.84 1.82 4.28 2.69 2.72 2.07 4.43 4.79 6.33 7.61 1.38 2 1.38 2 4.39 2.71v3h3c1.02 1.65 2.02 3.32 3 5 1.04 0.999 2.11 1.98 3.19 2.94 2.51 2.39 2.78 2.78 3.19 6.44-0.124 0.866-0.247 1.73-0.375 2.62 1.05-0.103 2.1-0.206 3.19-0.312 3.81 0.312 3.81 0.312 6.62 2.56 2.19 2.75 2.19 2.75 3.19 4.94 1.43 2.58 3.29 2.74 6 3.81 1.71 1.63 3.37 3.3 5 5 0.848 0.851 1.7 1.7 2.57 2.58 4.83 5.05 8.07 8.9 9.8 15.7 0.504 2 0.504 2 2.94 2.98 0.887 0.247 1.77 0.495 2.69 0.75 2.26 1.51 4.02 3.11 6 5v3c0.66 0.66 1.32 1.32 2 2 0.66-0.33 1.32-0.66 2-1 0.99 0.33 1.98 0.66 3 1-1 2-1 2-3 3 0.33 1.32 0.66 2.64 1 4h2v2c0.928 0.186 0.928 0.186 1.88 0.375 2.12 0.625 2.12 0.625 4.12 2.62 0.66-0.33 1.32-0.66 2-1 1.52 2.94 2.8 5.92 4 9h1c0.222 2.42 0.428 4.83 0.625 7.25 0.0645 0.682 0.129 1.36 0.195 2.07 0.296 3.81 0.355 6.46-1.82 9.68 0.959 0.371 0.959 0.371 1.94 0.75 2.06 1.25 2.06 1.25 2.62 3.31 0.144 0.639 0.289 1.28 0.438 1.94 0.99 0.33 1.98 0.66 3 1 1.02 0.978 2.02 1.98 3 3 1.02 0.638 1.02 0.638 2.07 1.29 1.93 1.71 1.93 1.71 2.36 4.09 0.00129 0.866 0.00258 1.73 0.00391 2.62 0.0916 2.63 0.0916 2.63 0.562 5 2.37 2.21 2.37 2.21 5 3-0.309 1.03-0.619 2.06-0.938 3.12-0.837 5.96 2.6 10.9 5.37 15.9 1.57 2.98 1.57 2.98 1.57 4.98h3c0.33 1.65 0.66 3.3 1 5 0.99 0.33 1.98 0.66 3 1v7c0.804 0.289 1.61 0.578 2.44 0.875 2.56 1.12 2.56 1.12 3.56 3.12-0.0891 2.56-0.233 5.08-0.438 7.62-0.0522 0.706-0.104 1.41-0.158 2.14-0.13 1.75-0.266 3.49-0.404 5.23 0.99 0.33 1.98 0.66 3 1 2.71 3.68 4.08 6.93 3.75 11.5-0.247 0.825-0.495 1.65-0.75 2.5 1.67 0.371 1.67 0.371 3.38 0.75 3.62 1.25 3.62 1.25 4.91 3 0.914 2.86 0.532 4.59-0.156 7.5-0.204 0.892-0.407 1.78-0.617 2.7-0.168 0.675-0.335 1.35-0.508 2.05 0.784 0.247 1.57 0.495 2.38 0.75 2.62 1.25 2.62 1.25 3.94 3 0.688 2.25 0.688 2.25 0.438 5.25l0.25 3c2.74 2.22 2.74 2.22 6 4 2.38 2.06 2.38 2.06 4 4v3c0.639 0.144 1.28 0.289 1.94 0.438 2.06 0.562 2.06 0.562 3.06 1.56 0.0723 1.85 0.0838 3.71 0.0625 5.56-0.00902 1.01-0.018 2.02-0.0273 3.07-0.0174 1.17-0.0174 1.17-0.0352 2.37l-2 1c-1.52 9.73-1.1 19.9-1.12 29.8-0.00467 1.12-0.00935 2.25-0.0142 3.4-0.58 12.2-0.58 12.2 2.14 23.8 0.0837 1.52 0.107 3.05 0.0977 4.57-0.00322 0.896-0.00645 1.79-0.00977 2.71-0.00838 0.937-0.0168 1.87-0.0254 2.84-0.00451 0.945-0.00902 1.89-0.0137 2.86-0.0118 2.34-0.0283 4.67-0.0488 7.01h3c0.33-0.66 0.66-1.32 1-2 0.144 1.07 0.289 2.14 0.438 3.25 0.433 3.47 0.433 3.47 1.12 5.66 0.54 2.58 0.31 4.73 0 7.34-0.153 1.34-0.153 1.34-0.309 2.7-0.0838 0.675-0.168 1.35-0.254 2.05-6.71 0.198-12.7 0.308-19-2 0.33 1.11 0.66 2.23 1 3.38 1.13 5.01 1.19 9.89 1.19 15 6.45e-4 0.797 0.00129 1.59 0.00195 2.42-0.031 3.31-0.136 6.05-1.19 9.21 0.238 2.2 0.238 2.2 0.812 4.5 0.171 0.773 0.343 1.55 0.52 2.34 0.637 2.42 0.637 2.42 2.67 5.16-0.333 3.2-0.983 5.95-2 9 3.96 1.54 6.46 2.48 10.6 1.2 4.94-2.39 8.83-4.99 12.4-9.2 0.816-0.88 1.63-1.76 2.47-2.67 2.86-3.45 3.99-6.93 5.15-11.2 0.411-1.41 0.824-2.83 1.24-4.24 0.289-1 0.289-1 0.584-2.03 1-3.36 2.26-6.6 3.55-9.85h3c0.291 1.1 0.583 2.2 0.883 3.33 3.94 14.4 7.73 24.7 21.1 32.7 4.4 2.47 8.67 4.59 13.5 6.06 2.5 0.938 2.5 0.938 3.88 3.06 0.206 0.619 0.412 1.24 0.625 1.88-3.13 2.09-5.58 2.82-9.19 3.81-5.02 1.48-9.07 3.21-13.3 6.23-1.49 0.953-1.49 0.953-3.49 0.953-0.271 0.575-0.541 1.15-0.82 1.74-1.19 2.29-2.56 4.28-4.05 6.38-4.76 7.06-7.29 14.6-9.12 22.9-1.32-0.33-2.64-0.66-4-1-0.219-0.883-0.438-1.77-0.664-2.68-3.11-11.8-7.67-24.6-18.3-31.6-6.06-3.19-12.1-5.03-19-4.69-0.34 1.39-0.672 2.79-1 4.19-0.186 0.777-0.371 1.55-0.562 2.36-0.523 2.44-0.523 2.44-0.355 4.9-0.103 3.21-1.06 5.4-2.39 8.31-0.429 0.964-0.859 1.93-1.3 2.92-1.39 2.33-1.39 2.33-4.39 3.33-1.16 4.05-0.925 6.25 1 10 0.66 0.66 1.32 1.32 2 2 0.697 1.32 1.37 2.65 2 4l3-3c2.27 3 3.01 4.57 2.94 8.38-0.878 3.4-2.12 5.79-3.97 8.74-1.1 2.14-1.49 4.02-1.91 6.38-0.622 3.32-1.44 5.31-3.56 7.94-2.29 2.86-2.94 5.07-3.5 8.69-0.762 4.9-2.14 6.83-6 9.88v-2c-4.53-0.934-4.53-0.934-9 0-0.771 2-0.771 2-1.12 4.38-0.494 2.66-1.01 5.04-1.88 7.62h-2c-0.124 0.949-0.247 1.9-0.375 2.88-0.625 3.12-0.625 3.12-2.62 5.12-0.129 2.4-0.129 2.4 0.0625 5.12 0.0648 5.48-0.282 9.1-3.06 13.9-2.75 1.3-4.93 1.6-8 2-0.33 2.31-0.66 4.62-1 7-0.99 0.33-1.98 0.66-3 1-0.0864 0.641-0.173 1.28-0.262 1.94-0.871 5.36-1.96 8.93-5.38 13.1-2.28 3.23-3.59 6.91-5.05 10.6-1.49 2.69-2.48 3.3-5.31 4.36-0.66 0.33-1.32 0.66-2 1-0.186 1.92-0.186 1.92-0.375 3.88-0.382 3.87-0.382 3.87-2.56 6.12-2.06 1-2.06 1-4.06 1 0.33 2.31 0.66 4.62 1 7-1.17 0.563-1.17 0.563-2.37 1.14-3.27 2.32-3.66 3.85-4.69 7.68-1.42 4.68-2.66 8.45-5.94 12.2-1.73 0.864-3.46 1.73-5.18 2.59-3.9 3.03-5.75 8.02-7.82 12.4h-2c-0.247 0.742-0.495 1.49-0.75 2.25-1.89 4.16-3.92 6.17-8.12 8-3.12 0.75-3.12 0.75-6.19 0.5-3.26-0.0533-3.26-0.0533-5.62 3.12-0.763 1.03-1.53 2.06-2.31 3.12-0.99 0.66-1.98 1.32-3 2-0.712 1.73-0.712 1.73-1.44 3.5-1.77 3.96-2.02 3.74-5.56 5.5-1.91 2.02-1.91 2.02-3.62 4.38-0.59 0.771-1.18 1.54-1.79 2.34-1.62 2.21-1.62 2.21-2.64 4.52-0.945 1.77-0.945 1.77-3.45 2.64-0.825 0.371-1.65 0.742-2.5 1.12-0.691 1.99-1.36 3.99-2 6-1.94 0.562-1.94 0.562-4 1-0.351 0.784-0.701 1.57-1.06 2.38-2.34 3.17-3.33 3.2-7.06 4.06-5.97 1.39-9.98 3.99-14.9 7.56-5.61 3.71-10.5 6.78-17.2 7.5-1.24 0.165-2.48 0.33-3.75 0.5-0.33 0.66-0.66 1.32-1 2-3.06 1.97-5.4 2.2-9 2-0.268 0.639-0.536 1.28-0.812 1.94-1.19 2.06-1.19 2.06-4.19 3.06-0.33 1.65-0.66 3.3-1 5-1.46 0.168-2.92 0.334-4.38 0.5-0.812 0.0928-1.62 0.186-2.46 0.281-2.16 0.219-2.16 0.219-4.16 0.219-0.474 0.66-0.949 1.32-1.44 2-0.516 0.66-1.03 1.32-1.56 2h-3c-0.33 0.99-0.66 1.98-1 3-3.28 1.45-5.59 2.02-9.19 1.81-1.39 0.0928-1.39 0.0928-2.81 0.188-0.392 0.763-0.784 1.53-1.19 2.31-2.63 3.89-5.72 3.91-10.1 4.93-3.25 0.919-5.22 2.46-7.66 4.75-0.99 0.33-1.98 0.66-3 1-0.495 0.681-0.99 1.36-1.5 2.06-0.743 0.959-0.743 0.959-1.5 1.94h-3c-0.249 0.922-0.249 0.922-0.504 1.86-2.32 3.31-5.68 3.54-9.43 4.32-1.45 0.326-2.89 0.653-4.34 0.98-1.23 0.275-2.46 0.549-3.72 0.832-0.99 0.33-1.98 0.66-3 1 0.33 1.65 0.66 3.3 1 5h-7v-3c-0.619-0.309-1.24-0.619-1.88-0.938l-4.12-2.06c-1.54-0.0695-3.08-0.0845-4.62-0.0625-1.23 0.0135-1.23 0.0135-2.48 0.0273-0.626 0.0116-1.25 0.0232-1.9 0.0352v6h-5v2c-3.21 1.07-5.67 0.913-9 0.732-6.91-0.58-6.91-0.58-13.1 1.75-1.38 1.85-1.38 1.85-2.45 3.75-2.59 3.25-6.47 3.25-10.4 3.77-3.96 0.318-7.91 0.458-11.9 0.562-2.04 0.0599-4.08 0.124-6.12 0.191-0.891 0.0239-1.78 0.0479-2.7 0.0725-2.47 0.0911-2.47 0.0911-5.31 1.17-1.66 0.0931-3.33 0.13-5 0.125-0.866 0.00258-1.73 0.00516-2.62 0.00781-2.38-0.133-2.38-0.133-5.38-1.13-0.66 0.33-1.32 0.66-2 1-4.35 0.301-8.52 0.0793-12.8-0.625-3.41-0.401-4.37-0.126-7.19 1.62-1.32 0.372-2.66 0.706-4 1-0.903 0.255-0.903 0.255-1.82 0.516-6.54 1.46-12.9 0.658-19.2-1.52v-2c-0.886-0.0251-1.77-0.0501-2.68-0.0759-30.5-0.875-30.5-0.875-42.3-1.75-2.6-0.15-5.08-0.113-7.67 0.0156-6.84 0.105-14.3-2.4-20.1-5.83-4.96-2.11-9.73-1.42-15-1.06-6.39 0.236-10.1-1.4-15.2-5.29 0.33-0.99 0.66-1.98 1-3-0.871-0.182-1.74-0.364-2.64-0.551-19.1-4.03-19.1-4.03-26.4-6.45-1.48-0.275-2.96-0.545-4.44-0.812-3.94-0.871-6.2-1.74-8.56-5.19-0.102-0.812-0.204-1.62-0.309-2.46-0.457-2.69-0.457-2.69-2.76-4.12-0.824-0.406-1.65-0.812-2.5-1.23-1.24-0.628-1.24-0.628-2.5-1.27-0.638-0.303-1.28-0.606-1.93-0.918-0.33 0.66-0.66 1.32-1 2-1.66-0.814-3.32-1.63-4.98-2.44-2.6-0.721-4.44-0.232-7.02 0.441 0.71 0.121 1.42 0.242 2.15 0.367 1.38 0.251 1.38 0.251 2.79 0.508 0.917 0.162 1.83 0.325 2.78 0.492 0.754 0.209 1.51 0.418 2.29 0.633 0.33 0.66 0.66 1.32 1 2-6.25 0.461-10.8 0.208-16.2-3.03-1.91-1.04-3.67-1.53-5.79-1.97v-2c-0.866-0.0825-1.73-0.165-2.62-0.25-3.99-0.887-6.31-2.05-9.38-4.75-0.375-3.25-0.375-3.25 0-6h2v-2h-5c-0.33-0.66-0.66-1.32-1-2-2.59-1.11-5.16-2.11-7.81-3.06l-2.2-0.814c-4.3-1.58-8.37-2.92-12.9-3.5-3.28-0.668-5.38-1.65-8.06-3.62v-2c-0.723-0.25-1.45-0.5-2.19-0.758-3.06-1.35-5.19-2.98-7.75-5.12-6.26-5.68-6.26-5.68-13.9-8.38l-2.12 0.25c1.65 0.33 3.3 0.66 5 1-1.32 0.99-2.64 1.98-4 3v-2c-1.65 0.66-3.3 1.32-5 2-1.29-4.12-2.26-7.67-2-12h2c-0.0309-1.67-0.0309-1.67-0.0625-3.38 0.0625-3.62 0.0625-3.62 1.06-5.62-0.99 0.33-1.98 0.66-3 1v-3c-0.99-0.33-1.98-0.66-3-1v-2h-8c-0.33 0.66-0.66 1.32-1 2h-1c-1.34 0.65-2.68 1.32-4 2-0.433-0.949-0.866-1.9-1.31-2.88-2.06-3.81-3.76-4.77-7.75-6.31-2.94-1.81-2.94-1.81-4.19-5.19-0.248-1.2-0.495-2.39-0.75-3.62-0.916-3.19-1.34-4.61-4.24-6.33l-2.63-0.922c-0.864-0.315-1.73-0.629-2.62-0.953-2.16-0.686-4.3-1.28-6.51-1.8v-2l-1.88-0.375c-2.12-0.625-2.12-0.625-4.12-2.62-1.26-7.22-1.26-7.22 0-11 1.32 0.33 2.64 0.66 4 1-0.0265-3.36-0.0265-3.36-1-7-1.98-1.36-3.98-2.7-6-4-0.875-3.25-0.875-3.25-1-6-1.08 0.804-1.08 0.804-2.19 1.62-2.81 1.38-2.81 1.38-5.62 0.562-1.08-0.588-1.08-0.588-2.19-1.19 0.33-0.66 0.66-1.32 1-2v-3h-2c-0.982-4.05-1.08-7.84-1-12-0.598-0.248-1.2-0.495-1.81-0.75-3.94-2.25-5.01-4.7-6.38-9l-0.812-3.25c-1.32-0.33-2.64-0.66-4-1-1.12-6.62-1.12-6.62 0-10-0.598-0.289-1.2-0.577-1.81-0.875-2.19-1.12-2.19-1.12-5.19-3.12v-2c-1.65-0.33-3.3-0.66-5-1-0.33-1.65-0.66-3.3-1-5-0.592-0.121-1.18-0.242-1.79-0.367-10.9-2.31-10.9-2.31-13.2-4.63-0.164-3.3-0.255-6.6-0.328-9.9-0.336-3.29-0.336-3.29-3.11-4.73l-2.56-1.37c-1.07-2.16-1.07-2.16-1.69-4.5-0.838-3.08-1.49-4.77-3.31-7.5-0.949-0.227-1.9-0.454-2.88-0.688-3.54-1.48-3.77-2-5.31-5.31-0.282-0.701-0.565-1.4-0.855-2.12-0.938-2.22-0.938-2.22-3.96-3.88-0.966-3.34-1.69-6.65-2.37-10.1-1.02-4.63-2.31-6.69-5.63-9.94-0.525-5.6 0.71-11.9 3-17 0.66-0.33 1.32-0.66 2-1 0.0427-1.67 0.0406-3.33 0-5-0.33-0.33-0.66-0.66-1-1-0.234-1.85-0.413-3.7-0.562-5.56-0.0838-1.01-0.168-2.02-0.254-3.07-0.0606-0.782-0.121-1.56-0.184-2.37-0.66 1.32-1.32 2.64-2 4-0.99-0.33-1.98-0.66-3-1-1.7 0.951-3.36 1.95-5 3h-2c-1.15-5.76-2-11.1-2-17-0.654-2-1.32-4-2-6-0.439-2.66-0.722-5.31-1-8h-2c-3.29-8.43-3.29-8.43-4-13h-2l-0.438-3.31c-0.445-3.62-0.445-3.62-1.56-6.69 3.94-1.31 6.12-0.243 10 1-0.14-2.65-0.287-5.29-0.438-7.94l-0.119-2.29c0.116-3.69 0.116-3.69-1.44-6.78-1.62-7.34-2.27-14.7-2.56-22.2-0.493-3.14-1.23-4.55-3.44-6.81-2.6-0.804-2.6-0.804-5-1 0.0619 0.763 0.124 1.53 0.188 2.31-0.188 2.69-0.188 2.69-1.69 4.5-0.495 0.392-0.99 0.784-1.5 1.19-0.99-0.33-1.98-0.66-3-1 0.389-3.26 0.849-5.72 2.44-8.62 4.1-8.86 3.81-18.9 3.62-28.5-0.0343-2.21-0.0645-4.42-0.0898-6.63-0.018-0.961-0.0359-1.92-0.0544-2.91 0.0818-2.33 0.0818-2.33 1.08-4.33h2c0.222-1.79 0.427-3.58 0.625-5.38 0.116-0.998 0.232-2 0.352-3.02 0.0116-1.29 0.0116-1.29 0.0234-2.6-0.66-0.66-1.32-1.32-2-2-0.414-2.61-0.414-2.61-0.625-5.75-0.0748-1.03-0.15-2.05-0.227-3.11-0.295-6.24 0.198-11.1 1.85-17.1h-2v-2h-2c-1.32-4.53-0.586-8.37 0.375-12.9 1.64-8.02 2.76-15.9 3.19-24.1 0.0432-0.779 0.0864-1.56 0.131-2.36 0.105-1.9 0.206-3.8 0.307-5.7 1.32 0.33 2.64 0.66 4 1 0.121 1.14 0.242 2.29 0.367 3.46 0.169 1.49 0.338 2.98 0.508 4.47l0.238 2.29c0.226 1.93 0.549 3.86 0.887 5.78 0.66 0.33 1.32 0.66 2 1-0.33 4.29-0.66 8.58-1 13 0.99 0.33 1.98 0.66 3 1-0.186-0.701-0.371-1.4-0.562-2.12-0.489-3.21-0.0998-5.71 0.562-8.88h2v10c0.99 0.33 1.98 0.66 3 1 0.0582-3.73 0.0937-7.46 0.125-11.2 0.0168-1.06 0.0335-2.11 0.0508-3.2 0.00645-1.02 0.0129-2.04 0.0195-3.1 0.0105-0.937 0.0209-1.87 0.0317-2.84-0.247-2.91-1.15-4.99-2.23-7.68-0.151-2.43-0.151-2.43-0.0117-4.94 0.0471-0.913 0.0941-1.83 0.143-2.77 0.0599-0.942 0.12-1.88 0.182-2.85 0.0483-0.946 0.0967-1.89 0.146-2.87 0.223-4 0.521-7.69 1.54-11.6 0.0646-1.42 0.0861-2.83 0.0625-4.25-0.0206-1.24-0.0412-2.48-0.0625-3.75 5.49-1.87 10.2-2.24 16-2 0.182-0.855 0.364-1.71 0.551-2.59l0.762-3.35c0.244-1.1 0.487-2.2 0.738-3.34 0.313-0.898 0.626-1.8 0.949-2.72 0.99-0.33 1.98-0.66 3-1 0.0258-0.629 0.0516-1.26 0.0781-1.91 0.306-4.61 0.737-8.23 3.05-12.3 2.27-4.02 1.98-6.39 0.875-10.8-1.32-0.33-2.64-0.66-4-1-1.23-4.35-0.672-7.45 0.375-11.8 1.17-5.08 2.11-10 2.62-15.2h6c0.526-1.18 0.526-1.18 1.06-2.38 1.5-3.05 3.38-5.69 5.38-8.44 5.47-7.72 8.07-15.4 10.4-24.6 1.12-2.62 1.12-2.62 3.12-3.48 0.663-0.0464 1.33-0.0928 2.01-0.141 2.13-0.157 2.13-0.157 4-1 1.3-2.49 1.3-2.49 2-5-0.66-0.33-1.32-0.66-2-1 0.472-4.25 2.97-6.2 6-9 0.33 0.33 0.66 0.66 1 1 4.08-1.3 4.08-1.3 8-3v3c0.33-0.99 0.66-1.98 1-3h3v3c3.14-0.608 3.14-0.608 6-3 0.864-3.99 0.987-7.92 1-12 1.65-0.66 3.3-1.32 5-2-0.33-1.98-0.66-3.96-1-6 1.81-1.06 1.81-1.06 4-2 0.99 0.33 1.98 0.66 3 1 0.227-0.639 0.454-1.28 0.688-1.94 1.31-2.06 1.31-2.06 3.94-2.81 0.784-0.0825 1.57-0.165 2.38-0.25-0.0928-1.67-0.0928-1.67-0.188-3.38 0.0619-1.2 0.124-2.39 0.188-3.62 3.42-2.28 5.96-2.63 9.94-3.24 2.22-0.57 2.22-0.57 3.18-2.66 0.289-0.694 0.578-1.39 0.875-2.1 2.44-2.75 2.44-2.75 5-5h3c0.289-1.13 0.578-2.27 0.875-3.44l1.12-3.56c0.66-0.33 1.32-0.66 2-1 0.839-2.51 0.839-2.51 1.5-5.44 1.28-5.34 1.28-5.34 3.5-7.56h3c0.33-0.99 0.66-1.98 1-3 1.89-1.5 1.89-1.5 4.25-3 0.81-0.522 1.62-1.04 2.45-1.58 1.74-1.08 3.51-2.1 5.3-3.11 2.31-1.22 2.31-1.22 3-4.31h2c0.165-0.598 0.33-1.2 0.5-1.81 2.04-2.98 4.25-3.38 7.62-4.38 2.24-0.763 2.24-0.763 3.88-3.81 0.91-0.293 1.82-0.585 2.76-0.887 3.88-1.33 6.09-3.19 9.12-5.93 0.967-0.852 1.93-1.7 2.93-2.58 2.42-2.39 2.42-2.39 2.51-5.3-0.103-0.759-0.206-1.52-0.312-2.3 0.209-3.35 1.14-4.14 3.56-6.62 3.55-2.81 7.03-3.54 11.4-4.38-0.0309-1.7-0.0309-1.7-0.0625-3.44 0.0625-3.56 0.0625-3.56 1.06-4.56 2.54 0.0909 5.04 0.237 7.56 0.438 0.711 0.0522 1.42 0.104 2.15 0.158 1.76 0.13 3.52 0.267 5.28 0.404v3h2c0.206-0.784 0.413-1.57 0.625-2.38 1.38-2.62 1.38-2.62 4.5-3.94 0.949-0.227 1.9-0.454 2.88-0.688v-2c3.38 0.537 6.7 1.11 10 2 0.66-0.99 1.32-1.98 2-3 1.98 0.33 3.96 0.66 6 1 0.33-0.66 0.66-1.32 1-2 0.66-0.66 1.32-1.32 2-2 0.167-2.46 0.167-2.46 0-5 0-3 0-3 1.69-5.19 2.71-2.12 3.96-2.19 7.31-1.81 0.33 1.98 0.66 3.96 1 6 5.48-0.903 10.6-2.12 15.8-4.12 3.91-1.49 7.01-2.42 11.2-1.88 0.66 0.33 1.32 0.66 2 1 0.186-0.608 0.371-1.22 0.562-1.84 2.67-4.01 7.83-4.47 12.2-5.81 3.26-1.02 3.26-1.02 4.5-3.43 0.226-0.63 0.451-1.26 0.684-1.91 1.94-1.06 1.94-1.06 4-2 0.433-0.496 0.866-0.993 1.31-1.5 2.22-1.97 3.82-2.03 6.75-2.37 5.86-0.951 11.1-2.57 15.9-6.12 1.28-3.09 1.28-3.09 2-6 2.75-1.19 2.75-1.19 6-2l3.12-1.56c3.86-1.93 7.14-2.55 11.4-2.75 0.844-0.0419 1.69-0.0838 2.56-0.127 0.873-0.0393 1.75-0.0786 2.64-0.119 1.33-0.0648 1.33-0.0648 2.69-0.131 2.19-0.106 4.37-0.208 6.56-0.307 0.66 2.31 1.32 4.62 2 7 1-0.0174 1-0.0174 2.02-0.0352 6.72-0.0658 13.3 0.311 20 1.04-0.66 0.66-1.32 1.32-2 2 4.82 1.61 7.56 0.178 12-2 0.66-0.371 1.32-0.743 2-1.12 5.57-2.44 10.4-1.82 16.1-0.348 1.91 0.552 1.91 0.552 3.92 0.473 0.33-2.31 0.66-4.62 1-7 1.24 0.217 1.24 0.217 2.5 0.438 3.83 0.615 7.65 1.1 11.5 1.56v7c3.96-0.495 3.96-0.495 8-1-0.126-0.905-0.126-0.905-0.254-1.83-0.102-0.799-0.204-1.6-0.309-2.42-0.104-0.789-0.209-1.58-0.316-2.39-0.121-2.36 0.183-4.11 0.879-6.36h-4v-3z" fill="#000912"/>
<path transform="translate(572,556)" d="m0 0c14.3-0.0233 28.6-0.0409 43-0.0518 6.65-0.00523 13.3-0.0123 20-0.0236 6.41-0.0108 12.8-0.0168 19.2-0.0194 2.45-0.00185 4.91-0.00548 7.36-0.0109 3.42-0.00721 6.84-0.00826 10.3-0.0078 1.02-0.0036 2.05-0.00719 3.11-0.0109 0.927 0.00137 1.85 0.00275 2.81 0.00417 0.81-9.22e-4 1.62-0.00184 2.46-0.00279 1.84 0.123 1.84 0.123 2.84 1.12 0.0949 2.26 0.117 4.52 0.114 6.78 1.49e-4 0.718 2.98e-4 1.44 4.51e-4 2.17-6.99e-4 2.42-0.00856 4.85-0.0163 7.27-0.00192 1.73-0.00338 3.46-0.00443 5.19-0.00317 3.74-0.00946 7.48-0.0181 11.2-0.0135 5.93-0.0194 11.9-0.0241 17.8-0.0121 13.7-0.034 27.4-0.0562 41.1-0.0202 12.5-0.0383 25-0.0482 37.5-0.00494 5.88-0.0147 11.8-0.0284 17.6-0.00756 3.69-0.0108 7.38-0.013 11.1-0.00184 1.69-0.00539 3.38-0.0109 5.07-0.0384 12.1 0.406 24.1 1.11 36.2 7.89-4.64 14.1-10.9 20.2-17.6 8.23-9.01 16.9-17.6 25.5-26.2 1.79-1.79 3.57-3.57 5.36-5.36 4.19-4.19 8.39-8.38 12.6-12.6 5.23-5.22 10.5-10.4 15.7-15.7 7.67-7.66 15.3-15.3 23-23 1.31-1.3 2.61-2.6 3.91-3.91 1.08-1.08 2.17-2.16 3.25-3.24 2.28-2.26 4.43-4.55 6.46-7.04 2.43-2.88 5.01-5.13 8-7.44 3.01-2.86 5.78-5.87 8.5-9 3.71-4.26 7.52-8.21 11.9-11.8 3.35-2.83 6.16-5.97 9-9.3 3.54-4.11 7.4-7.51 11.6-10.9 1.69-1.65 3.35-3.31 5-5 0.767-0.757 1.53-1.51 2.32-2.29 2.27-2.3 4.46-4.65 6.62-7.06 4.13-4.6 8.25-8.98 13.1-12.9 2.04-1.72 2.04-1.72 3.61-3.81 2.82-3.45 5.03-5.64 9.44-6.7 3.77-0.267 7.5-0.283 11.3-0.209 1.44-0.00102 2.89-0.00554 4.33-0.0133 3.9-0.0108 7.8 0.0279 11.7 0.0762 4.09 0.0427 8.17 0.0414 12.3 0.0454 6.86 0.0129 13.7 0.0553 20.6 0.118 8.8 0.0807 17.6 0.115 26.4 0.135 7.57 0.0166 15.1 0.0511 22.7 0.0901 1.62 0.0081 3.25 0.0156 4.87 0.0224 4.63 0.0196 9.25 0.0486 13.9 0.0937 1.4 0.0122 2.8 0.0211 4.2 0.0265 1.91 0.00798 3.82 0.0295 5.74 0.0517 1.07 0.00855 2.14 0.0171 3.24 0.0259 2.75 0.267 4.42 0.85 6.77 2.27-1.3 3.77-2.76 6.12-5.59 8.92-0.734 0.731-1.47 1.46-2.22 2.21-0.793 0.774-1.59 1.55-2.4 2.35-0.814 0.807-1.63 1.61-2.47 2.45-2.6 2.57-5.21 5.14-7.82 7.7-2.61 2.57-5.21 5.15-7.82 7.72-1.62 1.6-3.24 3.2-4.87 4.8-1.1 1.09-1.1 1.09-2.22 2.2-0.97 0.953-0.97 0.953-1.96 1.93-1.82 1.84-1.82 1.84-3.63 4.73h-2c-0.227 0.553-0.455 1.11-0.689 1.68-1.7 3.01-3.84 5.08-6.29 7.52-0.506 0.505-1.01 1.01-1.53 1.53-1.67 1.67-3.35 3.32-5.03 4.98-1.17 1.16-2.34 2.33-3.51 3.49-3.08 3.07-6.16 6.13-9.25 9.18-4.92 4.88-9.84 9.76-14.7 14.7-1.71 1.7-3.42 3.39-5.13 5.08-1.06 1.06-2.13 2.12-3.19 3.17-0.92 0.912-1.84 1.82-2.79 2.76-2.17 2.21-4.21 4.5-6.24 6.84-3.47 4-7.14 7.76-10.9 11.5-0.692 0.691-1.38 1.38-2.1 2.09-1.49 1.49-2.98 2.97-4.47 4.45-2.37 2.35-4.73 4.71-7.09 7.07-5.86 5.85-11.7 11.7-17.6 17.5-4.97 4.95-9.94 9.9-14.9 14.9-2.32 2.31-4.64 4.62-6.96 6.93-1.43 1.43-2.87 2.86-4.3 4.29-0.637 0.632-1.27 1.26-1.93 1.91-3.75 3.75-7.3 7.62-10.7 11.7-1.67 1.83-3.42 3.41-5.32 4.99-4.51 3.8-8.38 8.14-12.3 12.5-1.31 1.46-2.67 2.87-4.04 4.27h-2c-0.268 0.598-0.536 1.2-0.812 1.81-1.19 2.19-2.28 3.6-4.19 5.19h-2c-0.33 0.99-0.66 1.98-1 3h-2c-0.255 0.583-0.51 1.17-0.773 1.77-1.36 2.47-2.84 4.04-4.87 5.99-0.744 0.721-1.49 1.44-2.25 2.19-0.802 0.77-1.6 1.54-2.43 2.33-1.68 1.65-3.37 3.29-5.05 4.94-2.66 2.59-5.32 5.18-8 7.75-2.58 2.48-5.14 4.99-7.7 7.5-0.808 0.766-1.62 1.53-2.45 2.32-4.36 4.06-4.36 4.06-5.59 9.61 1.35 3.15 2.84 4.64 5.49 6.79 0.791 0.654 1.58 1.31 2.4 1.98 0.735 0.605 1.47 1.21 2.23 1.83 1.79 1.61 1.79 1.61 3 3v2h2c0.264 0.603 0.529 1.21 0.801 1.83 1.26 2.28 2.35 3.34 4.39 4.92 2.63 2.14 4.87 4.36 7.05 6.95 3.72 4.31 7.7 8.31 11.8 12.3 3.92 3.85 7.79 7.69 11.4 11.9 4.33 5.03 9.05 9.66 13.8 14.3 1.32 1.31 1.32 1.31 2.67 2.65 3.3 3.28 6.6 6.56 9.91 9.83 2.4 2.44 4.73 4.93 7.05 7.45 9.35 10.1 19.1 19.8 28.8 29.4 5.16 5.11 10.2 10.2 14.9 15.7 2.29 2.65 4.74 5.1 7.22 7.57 1.38 1.39 1.38 1.39 2.8 2.8 2.42 2.42 2.42 2.42 5.45 4.32v2c0.99 0.33 1.98 0.66 3 1 1.34 1.66 2.67 3.33 4 5 1.45 1.16 2.91 2.32 4.36 3.48 2.65 2.45 4.7 5.33 6.83 8.23 3.48 4.39 7.69 8.15 11.7 12.1 1.82 1.8 3.63 3.6 5.45 5.39 0.931 0.915 1.86 1.83 2.82 2.77 0.88 0.873 1.76 1.75 2.67 2.65 0.806 0.796 1.61 1.59 2.44 2.41 1.76 1.98 1.76 1.98 1.76 3.98h2v2c0.592 0.266 1.18 0.531 1.79 0.805 2.27 1.23 3.73 2.48 5.52 4.32 0.532 0.539 1.06 1.08 1.61 1.63 1.18 1.28 2.35 2.56 3.48 3.89 5.64 6.59 11.8 12.6 18 18.7 1.42 1.39 2.83 2.78 4.24 4.18 0.835 0.818 1.67 1.64 2.53 2.48 1.82 2.03 1.82 2.03 1.82 4.03 0.576 0.238 1.15 0.477 1.75 0.723 2.73 1.54 4.28 3.34 6.32 5.71 4.32 4.94 8.87 9.54 13.6 14.1 5.38 5.52 5.38 5.52 5.38 9.45-10.7 0.883-21.5 1.3-32.2 1.56-0.835 0.0208-1.67 0.0417-2.53 0.0632-12.5 0.307-24.9 0.479-37.4 0.499-0.728 0.00259-1.46 0.00518-2.21 0.00784-2.05 0.00581-4.1 0.00432-6.15-3.05e-5 -1.16-0.00113-2.31-0.00226-3.5-0.00342-2.54-0.111-4.53-0.483-6.96-1.13-1.49-0.089-2.98-0.131-4.48-0.133-0.835-0.00129-1.67-0.00258-2.53-0.00391-0.864 0.00387-1.73 0.00773-2.62 0.0117-0.871-0.00387-1.74-0.00773-2.64-0.0117-0.833 0.00129-1.67 0.00258-2.52 0.00391-0.76 0.00113-1.52 0.00226-2.3 0.00342-1.99 0.0121-1.99 0.0121-3.91 1.13-4.18 0.353-8.37 0.371-12.6 0.438-1.73 0.0686-1.73 0.0686-3.5 0.139-9.86 0.129-14.6-2.71-21.8-9.07-0.761-0.786-1.52-1.57-2.3-2.38-0.831-0.857-1.66-1.71-2.52-2.6-2.63-2.82-5.2-5.69-7.69-8.64-3.99-4.52-8.44-8.65-12.7-12.9-3.24-3.21-6.47-6.43-9.7-9.64-1.71-1.7-3.42-3.4-5.14-5.09-2.47-2.45-4.94-4.91-7.41-7.36-0.772-0.761-1.54-1.52-2.34-2.31-0.705-0.704-1.41-1.41-2.14-2.13-0.937-0.93-0.937-0.93-1.89-1.88-1.33-1.57-1.33-1.57-1.33-3.57-0.581-0.255-1.16-0.51-1.76-0.773-2.47-1.35-4.09-2.84-6.05-4.85-0.625-0.632-1.25-1.26-1.89-1.91-1.86-2-3.64-4.03-5.42-6.1-4.43-5.09-9.21-9.81-14-14.6-1.32-1.31-1.32-1.31-2.67-2.65-1.68-1.67-3.37-3.35-5.05-5.02-2.39-2.37-4.77-4.76-7.16-7.14-0.813-0.802-1.63-1.6-2.46-2.43-4.21-4.16-8.34-8.31-12.1-12.9-3.42-3.93-7.27-7.49-11-11.1-2.32-2.3-4.64-4.6-6.96-6.9-1.23-1.21-2.45-2.43-3.68-3.64-1.78-1.75-3.55-3.52-5.32-5.28-0.553-0.543-1.11-1.09-1.68-1.64-1.32-1.32-2.58-2.69-3.84-4.06v-2c-0.895-0.4-0.895-0.4-1.81-0.807-2.24-1.22-3.55-2.39-5.25-4.27-0.551-0.603-1.1-1.21-1.67-1.83-0.564-0.628-1.13-1.26-1.71-1.9-1.12-1.24-2.25-2.47-3.37-3.71-0.54-0.593-1.08-1.19-1.64-1.8-2.98-3.23-6.01-6.24-9.43-9-4.38-3.59-7.87-8.03-11.5-12.3-1.56-1.82-3.14-3.62-4.72-5.41-0.503-0.597-1.01-1.19-1.52-1.81-1.62-1.89-1.62-1.89-4.35-4.13-2.69-0.323-2.69-0.323-5 1-1.84 1.71-1.84 1.71-3.25 3.88-0.75 1.05-0.75 1.05-1.52 2.12-2.54 4.13-2.37 8.01-2.33 12.7 0.00126 0.789 0.00252 1.58 0.00383 2.39 0.00539 2.65 0.0179 5.31 0.0303 7.96 0.00519 1.9 0.0099 3.8 0.0142 5.7 0.00995 4.09 0.0228 8.18 0.0377 12.3 0.023 6.47 0.0364 12.9 0.0477 19.4 0.0335 18.4 0.0752 36.8 0.138 55.2 0.0345 10.2 0.0583 20.3 0.0702 30.5 0.00679 5.38 0.0193 10.8 0.045 16.1 0.0242 5.05 0.0346 10.1 0.0344 15.2 0.00243 1.86 0.0101 3.72 0.0231 5.58 0.0171 2.53 0.0158 5.06 0.00988 7.58 0.00942 0.743 0.0188 1.49 0.0285 2.25-0.0162 2.04-0.0162 2.04-0.383 5.3-3.14 2.09-3.84 2.25-7.41 2.25-0.902 0.00419-1.8 0.00839-2.73 0.0127-1.48-0.00843-1.48-0.00843-2.99-0.017-1.04 0.0019-2.08 0.0038-3.15 0.00575-3.45 0.00371-6.9-7e-3 -10.3-0.0182-2.39-0.00119-4.78-0.00164-7.17-0.00139-5.01-0.00157-10-0.00986-15-0.0233-6.44-0.017-12.9-0.0208-19.3-0.0201-4.94-2.71e-4 -9.87-0.00575-14.8-0.013-2.37-0.00319-4.75-0.00515-7.12-0.00589-3.31-0.00216-6.62-0.0109-9.93-0.0216-0.989 4.53e-4 -1.98 9.06e-4 -3 0.00137-0.899-0.00426-1.8-0.00853-2.72-0.0129-1.17-0.00251-1.17-0.00251-2.37-0.00508-1.91-0.129-1.91-0.129-3.91-1.13-1.62-10.2-1.07-20.6-0.979-30.8 0.0183-2.42 0.0321-4.83 0.042-7.25 0.00322-0.776 0.00645-1.55 0.00977-2.35-0.00459-5.38-0.314-10.7-0.951-16-0.121-2.56-0.121-2.56 0.363-4.98 0.74-5.13 0.654-10.2 0.645-15.4 0.00175-1.18 0.0035-2.37 0.00531-3.59 0.00364-3.24 0.0028-6.48-3.79e-4 -9.71-0.00254-3.4-1.81e-4 -6.8 0.00139-10.2 0.00182-5.71-5.73e-4 -11.4-0.00534-17.1-0.00543-6.58-0.00369-13.2 0.00183-19.8 0.00456-5.67 0.00517-11.3 0.00256-17-0.00155-3.38-0.00179-6.76 0.00154-10.1 0.00255-3.77-0.00135-7.55-0.0069-11.3 0.00202-1.1 0.00405-2.21 0.00613-3.35-0.0155-5.7-0.257-11.3-0.908-16.9-0.269-2.42-0.361-4.8-0.352-7.23-0.00258-0.757-0.00516-1.51-0.00781-2.29 0.133-2.52 0.133-2.52 0.634-5.38 0.813-5.62 0.625-11.3 0.605-16.9-5.57e-4 -1.29-0.00111-2.59-0.00169-3.92-0.00164-3.58-0.0095-7.15-0.0184-10.7-0.00845-3.86-0.011-7.72-0.0143-11.6-0.00629-6.69-0.016-13.4-0.0279-20.1-0.017-9.68-0.0265-19.4-0.0339-29-0.0119-15.7-0.0269-31.4-0.0451-47.1-0.00109-0.94-0.00218-1.88-0.0033-2.85-0.0156-13.3-0.0342-26.7-0.054-40-0.00139-0.94-0.00279-1.88-0.00422-2.85-0.00139-0.939-0.00279-1.88-0.00422-2.85-0.023-15.7-0.0383-31.3-0.0473-47-0.00586-9.65-0.0182-19.3-0.039-29-0.0137-6.61-0.0202-13.2-0.021-19.8-7.05e-4 -3.82-0.00472-7.63-0.0175-11.4-0.0137-4.13-0.012-8.27-0.00883-12.4-0.00651-1.21-0.013-2.42-0.0197-3.67 0.00337-1.11 0.00673-2.21 0.0102-3.35-0.0013-0.954-0.0026-1.91-0.00394-2.89 0.268-2.86 1.06-5.03 2.25-7.64z" fill="#FCFDFF"/>
<path transform="translate(807,373)" d="m0 0c27.7 3.03 27.7 3.03 34 7 0.33 0.99 0.66 1.98 1 3 2.88 1.15 2.88 1.15 6.31 2 4.3 1.16 7.2 2.28 10.7 5 2.32 0.394 4.66 0.735 7 1 0.33 0.33 0.66 0.66 1 1 2.18 0.235 4.37 0.414 6.56 0.562 1.2 0.0838 2.4 0.168 3.63 0.254 0.927 0.0606 1.85 0.121 2.81 0.184v2c0.664-0.0348 1.33-0.0696 2.01-0.105 8.83-0.271 8.83-0.271 13 3.11 0.66 0.66 1.32 1.32 2 2 1.88 0.0197 1.88 0.0197 4-0.375 9.88-1.28 16.8-0.43 26 3.38 2.29 0.856 4.58 1.71 6.88 2.56 5.24 1.96 9.62 3.89 13.6 7.94 3.46 3.38 6.55 5.37 11.4 5.69 0.701-0.0619 1.4-0.124 2.12-0.188 0.33 0.99 0.66 1.98 1 3 0.603-0.0838 1.21-0.168 1.83-0.254 1.2-0.153 1.2-0.153 2.42-0.309 0.789-0.104 1.58-0.209 2.39-0.316 3.46-0.178 6.09 0.79 9.36 1.88 0.33 0.66 0.66 1.32 1 2 2.36 0.468 2.36 0.468 5.06 0.625 0.919 0.0748 1.84 0.15 2.79 0.227 0.71 0.049 1.42 0.098 2.15 0.148v-2c-1.64-0.186-1.64-0.186-3.31-0.375-3.69-0.625-3.69-0.625-6.69-2.62v-2c0.626 0.156 1.25 0.312 1.9 0.473 0.817 0.195 1.63 0.389 2.48 0.59 1.22 0.296 1.22 0.296 2.46 0.598 2.21 0.561 2.21 0.561 4.16-0.66 2.36 0.891 2.36 0.891 5.19 2.25 0.98 0.463 1.96 0.926 2.97 1.4 0.938 0.445 1.88 0.889 2.84 1.35 2.32 1.02 4.66 2.01 7 3-0.186 0.763-0.371 1.53-0.562 2.31-0.666 2.78-0.666 2.78 0.562 5.69 1.76 0.984 1.76 0.984 3.88 1.62 0.699 0.24 1.4 0.48 2.12 0.727 0.994 0.321 0.994 0.321 2.01 0.648 0.99 0.33 1.98 0.66 3 1 1.36-0.588 1.36-0.588 2.75-1.19 3.25-0.812 3.25-0.812 6.62 0.938 0.576 0.382 1.15 0.763 1.75 1.16 3.12 1.81 6.37 2.36 9.88 3.09v2h2v2h2c1.6 3.12 2.19 4.39 1.12 7.81-0.371 0.722-0.742 1.44-1.12 2.19-0.33-0.66-0.66-1.32-1-2h-2c3.92 4.9 8.32 6.56 14.2 8.69 3.03 1.39 4.76 2.71 6.84 5.31v3c1.42 0.911 2.84 1.82 4.28 2.69 2.72 2.07 4.43 4.79 6.33 7.61 1.38 2 1.38 2 4.39 2.71v3h3c1.02 1.65 2.02 3.32 3 5 1.04 0.999 2.11 1.98 3.19 2.94 2.51 2.39 2.78 2.78 3.19 6.44-0.124 0.866-0.247 1.73-0.375 2.62 1.05-0.103 2.1-0.206 3.19-0.312 3.81 0.312 3.81 0.312 6.62 2.56 2.19 2.75 2.19 2.75 3.19 4.94 1.43 2.58 3.29 2.74 6 3.81 1.71 1.63 3.37 3.3 5 5 0.848 0.851 1.7 1.7 2.57 2.58 4.83 5.05 8.07 8.9 9.8 15.7 0.504 2 0.504 2 2.94 2.98 0.887 0.247 1.77 0.495 2.69 0.75 2.26 1.51 4.02 3.11 6 5v3c0.66 0.66 1.32 1.32 2 2 0.66-0.33 1.32-0.66 2-1 0.99 0.33 1.98 0.66 3 1-1 2-1 2-3 3 0.33 1.32 0.66 2.64 1 4h2v2c0.928 0.186 0.928 0.186 1.88 0.375 2.12 0.625 2.12 0.625 4.12 2.62 0.66-0.33 1.32-0.66 2-1 1.52 2.94 2.8 5.92 4 9h1c0.222 2.42 0.428 4.83 0.625 7.25 0.0645 0.682 0.129 1.36 0.195 2.07 0.296 3.81 0.355 6.46-1.82 9.68 0.959 0.371 0.959 0.371 1.94 0.75 2.06 1.25 2.06 1.25 2.62 3.31 0.144 0.639 0.289 1.28 0.438 1.94 0.99 0.33 1.98 0.66 3 1 1.02 0.978 2.02 1.98 3 3 1.02 0.638 1.02 0.638 2.07 1.29 1.93 1.71 1.93 1.71 2.36 4.09 0.00129 0.866 0.00258 1.73 0.00391 2.62 0.0916 2.63 0.0916 2.63 0.562 5 2.37 2.21 2.37 2.21 5 3-0.309 1.03-0.619 2.06-0.938 3.12-0.837 5.96 2.6 10.9 5.37 15.9 1.57 2.98 1.57 2.98 1.57 4.98h3c0.33 1.65 0.66 3.3 1 5 0.99 0.33 1.98 0.66 3 1v7c0.804 0.289 1.61 0.578 2.44 0.875 2.56 1.12 2.56 1.12 3.56 3.12-0.0891 2.56-0.233 5.08-0.438 7.62-0.0522 0.706-0.104 1.41-0.158 2.14-0.13 1.75-0.266 3.49-0.404 5.23 0.99 0.33 1.98 0.66 3 1 2.71 3.68 4.08 6.93 3.75 11.5-0.247 0.825-0.495 1.65-0.75 2.5 1.67 0.371 1.67 0.371 3.38 0.75 3.62 1.25 3.62 1.25 4.91 3 0.914 2.86 0.532 4.59-0.156 7.5-0.204 0.892-0.407 1.78-0.617 2.7-0.168 0.675-0.335 1.35-0.508 2.05 0.784 0.247 1.57 0.495 2.38 0.75 2.62 1.25 2.62 1.25 3.94 3 0.688 2.25 0.688 2.25 0.438 5.25l0.25 3c2.74 2.22 2.74 2.22 6 4 2.38 2.06 2.38 2.06 4 4v3c0.639 0.144 1.28 0.289 1.94 0.438 2.06 0.562 2.06 0.562 3.06 1.56 0.0723 1.85 0.0838 3.71 0.0625 5.56-0.00902 1.01-0.018 2.02-0.0273 3.07-0.0174 1.17-0.0174 1.17-0.0352 2.37l-2 1c-1.52 9.73-1.1 19.9-1.12 29.8-0.00467 1.12-0.00935 2.25-0.0142 3.4-0.58 12.2-0.58 12.2 2.14 23.8 0.0837 1.52 0.107 3.05 0.0977 4.57-0.00322 0.896-0.00645 1.79-0.00977 2.71-0.00838 0.937-0.0168 1.87-0.0254 2.84-0.00451 0.945-0.00902 1.89-0.0137 2.86-0.0118 2.34-0.0283 4.67-0.0488 7.01h3c0.33-0.66 0.66-1.32 1-2 0.144 1.07 0.289 2.14 0.438 3.25 0.433 3.47 0.433 3.47 1.12 5.66 0.54 2.58 0.31 4.73 0 7.34-0.153 1.34-0.153 1.34-0.309 2.7-0.0838 0.675-0.168 1.35-0.254 2.05-6.71 0.198-12.7 0.308-19-2 0.33 1.11 0.66 2.23 1 3.38 1.13 5.01 1.19 9.89 1.19 15 6.45e-4 0.797 0.00129 1.59 0.00195 2.42-0.031 3.31-0.136 6.05-1.19 9.21 0.238 2.2 0.238 2.2 0.812 4.5 0.171 0.773 0.343 1.55 0.52 2.34 0.637 2.42 0.637 2.42 2.67 5.16-0.333 3.2-0.983 5.95-2 9 3.96 1.54 6.46 2.48 10.6 1.2 4.94-2.39 8.83-4.99 12.4-9.2 0.816-0.88 1.63-1.76 2.47-2.67 2.86-3.45 3.99-6.93 5.15-11.2 0.411-1.41 0.824-2.83 1.24-4.24 0.289-1 0.289-1 0.584-2.03 1-3.36 2.26-6.6 3.55-9.85h3c0.291 1.1 0.583 2.2 0.883 3.33 3.94 14.4 7.73 24.7 21.1 32.7 4.4 2.47 8.67 4.59 13.5 6.06 2.5 0.938 2.5 0.938 3.88 3.06 0.206 0.619 0.412 1.24 0.625 1.88-3.13 2.09-5.58 2.82-9.19 3.81-5.02 1.48-9.07 3.21-13.3 6.23-1.49 0.953-1.49 0.953-3.49 0.953-0.271 0.575-0.541 1.15-0.82 1.74-1.19 2.29-2.56 4.28-4.05 6.38-4.76 7.06-7.29 14.6-9.12 22.9-1.32-0.33-2.64-0.66-4-1-0.219-0.883-0.438-1.77-0.664-2.68-3.11-11.8-7.67-24.6-18.3-31.6-6.06-3.19-12.1-5.03-19-4.69-0.34 1.39-0.672 2.79-1 4.19-0.186 0.777-0.371 1.55-0.562 2.36-0.523 2.44-0.523 2.44-0.355 4.9-0.103 3.21-1.06 5.4-2.39 8.31-0.429 0.964-0.859 1.93-1.3 2.92-1.39 2.33-1.39 2.33-4.39 3.33-1.16 4.05-0.925 6.25 1 10 0.66 0.66 1.32 1.32 2 2 0.697 1.32 1.37 2.65 2 4l3-3c2.27 3 3.01 4.57 2.94 8.38-0.878 3.4-2.12 5.79-3.97 8.74-1.1 2.14-1.49 4.02-1.91 6.38-0.622 3.32-1.44 5.31-3.56 7.94-2.29 2.86-2.94 5.07-3.5 8.69-0.762 4.9-2.14 6.83-6 9.88v-2c-4.53-0.934-4.53-0.934-9 0-0.771 2-0.771 2-1.12 4.38-0.494 2.66-1.01 5.04-1.88 7.62h-2c-0.124 0.949-0.247 1.9-0.375 2.88-0.625 3.12-0.625 3.12-2.62 5.12-0.129 2.4-0.129 2.4 0.0625 5.12 0.0648 5.48-0.282 9.1-3.06 13.9-2.75 1.3-4.93 1.6-8 2-0.33 2.31-0.66 4.62-1 7-0.99 0.33-1.98 0.66-3 1-0.0864 0.641-0.173 1.28-0.262 1.94-0.871 5.36-1.96 8.93-5.38 13.1-2.28 3.23-3.59 6.91-5.05 10.6-1.49 2.69-2.48 3.3-5.31 4.36-0.66 0.33-1.32 0.66-2 1-0.186 1.92-0.186 1.92-0.375 3.88-0.382 3.87-0.382 3.87-2.56 6.12-2.06 1-2.06 1-4.06 1 0.33 2.31 0.66 4.62 1 7-1.17 0.563-1.17 0.563-2.37 1.14-3.27 2.32-3.66 3.85-4.69 7.68-1.42 4.68-2.66 8.45-5.94 12.2-1.73 0.864-3.46 1.73-5.18 2.59-3.9 3.03-5.75 8.02-7.82 12.4h-2c-0.247 0.742-0.495 1.49-0.75 2.25-1.89 4.16-3.92 6.17-8.12 8-3.12 0.75-3.12 0.75-6.19 0.5-3.26-0.0533-3.26-0.0533-5.62 3.12-0.763 1.03-1.53 2.06-2.31 3.12-0.99 0.66-1.98 1.32-3 2-0.712 1.73-0.712 1.73-1.44 3.5-1.77 3.96-2.02 3.74-5.56 5.5-1.91 2.02-1.91 2.02-3.62 4.38-0.59 0.771-1.18 1.54-1.79 2.34-1.62 2.21-1.62 2.21-2.64 4.52-0.945 1.77-0.945 1.77-3.45 2.64-0.825 0.371-1.65 0.742-2.5 1.12-0.691 1.99-1.36 3.99-2 6-1.94 0.562-1.94 0.562-4 1-0.351 0.784-0.701 1.57-1.06 2.38-2.34 3.17-3.33 3.2-7.06 4.06-5.97 1.39-9.98 3.99-14.9 7.56-5.61 3.71-10.5 6.78-17.2 7.5-1.24 0.165-2.48 0.33-3.75 0.5-0.33 0.66-0.66 1.32-1 2-3.06 1.97-5.4 2.2-9 2-0.268 0.639-0.536 1.28-0.812 1.94-1.19 2.06-1.19 2.06-4.19 3.06-0.33 1.65-0.66 3.3-1 5-1.46 0.168-2.92 0.334-4.38 0.5-0.812 0.0928-1.62 0.186-2.46 0.281-2.16 0.219-2.16 0.219-4.16 0.219-0.474 0.66-0.949 1.32-1.44 2-0.516 0.66-1.03 1.32-1.56 2h-3c-0.33 0.99-0.66 1.98-1 3-3.28 1.45-5.59 2.02-9.19 1.81-1.39 0.0928-1.39 0.0928-2.81 0.188-0.392 0.763-0.784 1.53-1.19 2.31-2.63 3.89-5.72 3.91-10.1 4.93-3.25 0.919-5.22 2.46-7.66 4.75-0.99 0.33-1.98 0.66-3 1-0.495 0.681-0.99 1.36-1.5 2.06-0.743 0.959-0.743 0.959-1.5 1.94h-3c-0.249 0.922-0.249 0.922-0.504 1.86-2.32 3.31-5.68 3.54-9.43 4.32-1.45 0.326-2.89 0.653-4.34 0.98-1.23 0.275-2.46 0.549-3.72 0.832-0.99 0.33-1.98 0.66-3 1 0.33 1.65 0.66 3.3 1 5h-7v-3c-0.619-0.309-1.24-0.619-1.88-0.938l-4.12-2.06c-1.54-0.0695-3.08-0.0845-4.62-0.0625-1.23 0.0135-1.23 0.0135-2.48 0.0273-0.626 0.0116-1.25 0.0232-1.9 0.0352v6h-5v2c-3.21 1.07-5.67 0.913-9 0.732-6.91-0.58-6.91-0.58-13.1 1.75-1.38 1.85-1.38 1.85-2.45 3.75-2.59 3.25-6.47 3.25-10.4 3.77-3.96 0.318-7.91 0.458-11.9 0.562-2.04 0.0599-4.08 0.124-6.12 0.191-0.891 0.0239-1.78 0.0479-2.7 0.0725-2.47 0.0911-2.47 0.0911-5.31 1.17-1.66 0.0931-3.33 0.13-5 0.125-0.866 0.00258-1.73 0.00516-2.62 0.00781-2.38-0.133-2.38-0.133-5.38-1.13-0.66 0.33-1.32 0.66-2 1-4.35 0.301-8.52 0.0793-12.8-0.625-3.41-0.401-4.37-0.126-7.19 1.62-1.32 0.372-2.66 0.706-4 1-0.903 0.255-0.903 0.255-1.82 0.516-6.54 1.46-12.9 0.658-19.2-1.52v-2c-0.886-0.0251-1.77-0.0501-2.68-0.0759-30.5-0.875-30.5-0.875-42.3-1.75-2.6-0.15-5.08-0.113-7.67 0.0156-6.84 0.105-14.3-2.4-20.1-5.83-4.96-2.11-9.73-1.42-15-1.06-6.39 0.236-10.1-1.4-15.2-5.29 0.33-0.99 0.66-1.98 1-3-0.871-0.182-1.74-0.364-2.64-0.551-19.1-4.03-19.1-4.03-26.4-6.45-1.48-0.275-2.96-0.545-4.44-0.812-3.94-0.871-6.2-1.74-8.56-5.19-0.102-0.812-0.204-1.62-0.309-2.46-0.457-2.69-0.457-2.69-2.76-4.12-0.824-0.406-1.65-0.812-2.5-1.23-1.24-0.628-1.24-0.628-2.5-1.27-0.638-0.303-1.28-0.606-1.93-0.918-0.33 0.66-0.66 1.32-1 2-1.66-0.814-3.32-1.63-4.98-2.44-2.6-0.721-4.44-0.232-7.02 0.441 0.71 0.121 1.42 0.242 2.15 0.367 1.38 0.251 1.38 0.251 2.79 0.508 0.917 0.162 1.83 0.325 2.78 0.492 0.754 0.209 1.51 0.418 2.29 0.633 0.33 0.66 0.66 1.32 1 2-6.25 0.461-10.8 0.208-16.2-3.03-1.91-1.04-3.67-1.53-5.79-1.97v-2c-0.866-0.0825-1.73-0.165-2.62-0.25-3.99-0.887-6.31-2.05-9.38-4.75-0.375-3.25-0.375-3.25 0-6h2v-2h-5c-0.33-0.66-0.66-1.32-1-2-2.59-1.11-5.16-2.11-7.81-3.06l-2.2-0.814c-4.3-1.58-8.37-2.92-12.9-3.5-3.28-0.668-5.38-1.65-8.06-3.62v-2c-0.723-0.25-1.45-0.5-2.19-0.758-3.06-1.35-5.19-2.98-7.75-5.12-6.26-5.68-6.26-5.68-13.9-8.38l-2.12 0.25c1.65 0.33 3.3 0.66 5 1-1.32 0.99-2.64 1.98-4 3v-2c-1.65 0.66-3.3 1.32-5 2-1.29-4.12-2.26-7.67-2-12h2c-0.0309-1.67-0.0309-1.67-0.0625-3.38 0.0625-3.62 0.0625-3.62 1.06-5.62-0.99 0.33-1.98 0.66-3 1v-3c-0.99-0.33-1.98-0.66-3-1v-2h-8c-0.33 0.66-0.66 1.32-1 2h-1c-1.34 0.65-2.68 1.32-4 2-0.433-0.949-0.866-1.9-1.31-2.88-2.06-3.81-3.76-4.77-7.75-6.31-2.94-1.81-2.94-1.81-4.19-5.19-0.248-1.2-0.495-2.39-0.75-3.62-0.916-3.19-1.34-4.61-4.24-6.33l-2.63-0.922c-0.864-0.315-1.73-0.629-2.62-0.953-2.16-0.686-4.3-1.28-6.51-1.8v-2l-1.88-0.375c-2.12-0.625-2.12-0.625-4.12-2.62-1.26-7.22-1.26-7.22 0-11 1.32 0.33 2.64 0.66 4 1-0.0265-3.36-0.0265-3.36-1-7-1.98-1.36-3.98-2.7-6-4-0.875-3.25-0.875-3.25-1-6-1.08 0.804-1.08 0.804-2.19 1.62-2.81 1.38-2.81 1.38-5.62 0.562-1.08-0.588-1.08-0.588-2.19-1.19 0.33-0.66 0.66-1.32 1-2v-3h-2c-0.982-4.05-1.08-7.84-1-12-0.598-0.248-1.2-0.495-1.81-0.75-3.94-2.25-5.01-4.7-6.38-9l-0.812-3.25c-1.32-0.33-2.64-0.66-4-1-1.12-6.62-1.12-6.62 0-10-0.598-0.289-1.2-0.577-1.81-0.875-2.19-1.12-2.19-1.12-5.19-3.12v-2c-1.65-0.33-3.3-0.66-5-1-0.33-1.65-0.66-3.3-1-5-0.592-0.121-1.18-0.242-1.79-0.367-10.9-2.31-10.9-2.31-13.2-4.63-0.164-3.3-0.255-6.6-0.328-9.9-0.336-3.29-0.336-3.29-3.11-4.73l-2.56-1.37c-1.07-2.16-1.07-2.16-1.69-4.5-0.838-3.08-1.49-4.77-3.31-7.5-0.949-0.227-1.9-0.454-2.88-0.688-3.54-1.48-3.77-2-5.31-5.31-0.282-0.701-0.565-1.4-0.855-2.12-0.938-2.22-0.938-2.22-3.96-3.88-0.966-3.34-1.69-6.65-2.37-10.1-1.02-4.63-2.31-6.69-5.63-9.94-0.525-5.6 0.71-11.9 3-17 0.66-0.33 1.32-0.66 2-1 0.0427-1.67 0.0406-3.33 0-5-0.33-0.33-0.66-0.66-1-1-0.234-1.85-0.413-3.7-0.562-5.56-0.0838-1.01-0.168-2.02-0.254-3.07-0.0606-0.782-0.121-1.56-0.184-2.37-0.66 1.32-1.32 2.64-2 4-0.99-0.33-1.98-0.66-3-1-1.7 0.951-3.36 1.95-5 3h-2c-1.15-5.76-2-11.1-2-17-0.654-2-1.32-4-2-6-0.439-2.66-0.722-5.31-1-8h-2c-3.29-8.43-3.29-8.43-4-13h-2l-0.438-3.31c-0.445-3.62-0.445-3.62-1.56-6.69 3.94-1.31 6.12-0.243 10 1-0.14-2.65-0.287-5.29-0.438-7.94l-0.119-2.29c0.116-3.69 0.116-3.69-1.44-6.78-1.62-7.34-2.27-14.7-2.56-22.2-0.493-3.14-1.23-4.55-3.44-6.81-2.6-0.804-2.6-0.804-5-1 0.0619 0.763 0.124 1.53 0.188 2.31-0.188 2.69-0.188 2.69-1.69 4.5-0.495 0.392-0.99 0.784-1.5 1.19-0.99-0.33-1.98-0.66-3-1 0.389-3.26 0.849-5.72 2.44-8.62 4.1-8.86 3.81-18.9 3.62-28.5-0.0343-2.21-0.0645-4.42-0.0898-6.63-0.018-0.961-0.0359-1.92-0.0544-2.91 0.0818-2.33 0.0818-2.33 1.08-4.33h2c0.222-1.79 0.427-3.58 0.625-5.38 0.116-0.998 0.232-2 0.352-3.02 0.0116-1.29 0.0116-1.29 0.0234-2.6-0.66-0.66-1.32-1.32-2-2-0.414-2.61-0.414-2.61-0.625-5.75-0.0748-1.03-0.15-2.05-0.227-3.11-0.295-6.24 0.198-11.1 1.85-17.1h-2v-2h-2c-1.32-4.53-0.586-8.37 0.375-12.9 1.64-8.02 2.76-15.9 3.19-24.1 0.0432-0.779 0.0864-1.56 0.131-2.36 0.105-1.9 0.206-3.8 0.307-5.7 1.32 0.33 2.64 0.66 4 1 0.121 1.14 0.242 2.29 0.367 3.46 0.169 1.49 0.338 2.98 0.508 4.47l0.238 2.29c0.226 1.93 0.549 3.86 0.887 5.78 0.66 0.33 1.32 0.66 2 1-0.33 4.29-0.66 8.58-1 13 0.99 0.33 1.98 0.66 3 1-0.186-0.701-0.371-1.4-0.562-2.12-0.489-3.21-0.0998-5.71 0.562-8.88h2v10c0.99 0.33 1.98 0.66 3 1 0.0582-3.73 0.0937-7.46 0.125-11.2 0.0168-1.06 0.0335-2.11 0.0508-3.2 0.00645-1.02 0.0129-2.04 0.0195-3.1 0.0105-0.937 0.0209-1.87 0.0317-2.84-0.247-2.91-1.15-4.99-2.23-7.68-0.151-2.43-0.151-2.43-0.0117-4.94 0.0471-0.913 0.0941-1.83 0.143-2.77 0.0599-0.942 0.12-1.88 0.182-2.85 0.0483-0.946 0.0967-1.89 0.146-2.87 0.223-4 0.521-7.69 1.54-11.6 0.0646-1.42 0.0861-2.83 0.0625-4.25-0.0206-1.24-0.0412-2.48-0.0625-3.75 5.49-1.87 10.2-2.24 16-2 0.182-0.855 0.364-1.71 0.551-2.59l0.762-3.35c0.244-1.1 0.487-2.2 0.738-3.34 0.313-0.898 0.626-1.8 0.949-2.72 0.99-0.33 1.98-0.66 3-1 0.0258-0.629 0.0516-1.26 0.0781-1.91 0.306-4.61 0.737-8.23 3.05-12.3 2.27-4.02 1.98-6.39 0.875-10.8-1.32-0.33-2.64-0.66-4-1-1.23-4.35-0.672-7.45 0.375-11.8 1.17-5.08 2.11-10 2.62-15.2h6c0.526-1.18 0.526-1.18 1.06-2.38 1.5-3.05 3.38-5.69 5.38-8.44 5.47-7.72 8.07-15.4 10.4-24.6 1.12-2.62 1.12-2.62 3.12-3.48 0.663-0.0464 1.33-0.0928 2.01-0.141 2.13-0.157 2.13-0.157 4-1 1.3-2.49 1.3-2.49 2-5-0.66-0.33-1.32-0.66-2-1 0.472-4.25 2.97-6.2 6-9 0.33 0.33 0.66 0.66 1 1 4.08-1.3 4.08-1.3 8-3v3c0.33-0.99 0.66-1.98 1-3h3v3c3.14-0.608 3.14-0.608 6-3 0.864-3.99 0.987-7.92 1-12 1.65-0.66 3.3-1.32 5-2-0.33-1.98-0.66-3.96-1-6 1.81-1.06 1.81-1.06 4-2 0.99 0.33 1.98 0.66 3 1 0.227-0.639 0.454-1.28 0.688-1.94 1.31-2.06 1.31-2.06 3.94-2.81 0.784-0.0825 1.57-0.165 2.38-0.25-0.0928-1.67-0.0928-1.67-0.188-3.38 0.0619-1.2 0.124-2.39 0.188-3.62 3.42-2.28 5.96-2.63 9.94-3.24 2.22-0.57 2.22-0.57 3.18-2.66 0.289-0.694 0.578-1.39 0.875-2.1 2.44-2.75 2.44-2.75 5-5h3c0.289-1.13 0.578-2.27 0.875-3.44l1.12-3.56c0.66-0.33 1.32-0.66 2-1 0.839-2.51 0.839-2.51 1.5-5.44 1.28-5.34 1.28-5.34 3.5-7.56h3c0.33-0.99 0.66-1.98 1-3 1.89-1.5 1.89-1.5 4.25-3 0.81-0.522 1.62-1.04 2.45-1.58 1.74-1.08 3.51-2.1 5.3-3.11 2.31-1.22 2.31-1.22 3-4.31h2c0.165-0.598 0.33-1.2 0.5-1.81 2.04-2.98 4.25-3.38 7.62-4.38 2.24-0.763 2.24-0.763 3.88-3.81 0.91-0.293 1.82-0.585 2.76-0.887 3.88-1.33 6.09-3.19 9.12-5.93 0.967-0.852 1.93-1.7 2.93-2.58 2.42-2.39 2.42-2.39 2.51-5.3-0.103-0.759-0.206-1.52-0.312-2.3 0.209-3.35 1.14-4.14 3.56-6.62 3.55-2.81 7.03-3.54 11.4-4.38-0.0309-1.7-0.0309-1.7-0.0625-3.44 0.0625-3.56 0.0625-3.56 1.06-4.56 2.54 0.0909 5.04 0.237 7.56 0.438 0.711 0.0522 1.42 0.104 2.15 0.158 1.76 0.13 3.52 0.267 5.28 0.404v3h2c0.206-0.784 0.413-1.57 0.625-2.38 1.38-2.62 1.38-2.62 4.5-3.94 0.949-0.227 1.9-0.454 2.88-0.688v-2c3.38 0.537 6.7 1.11 10 2 0.66-0.99 1.32-1.98 2-3 1.98 0.33 3.96 0.66 6 1 0.33-0.66 0.66-1.32 1-2 0.66-0.66 1.32-1.32 2-2 0.167-2.46 0.167-2.46 0-5 0-3 0-3 1.69-5.19 2.71-2.12 3.96-2.19 7.31-1.81 0.33 1.98 0.66 3.96 1 6 5.48-0.903 10.6-2.12 15.8-4.12 3.91-1.49 7.01-2.42 11.2-1.88 0.66 0.33 1.32 0.66 2 1 0.186-0.608 0.371-1.22 0.562-1.84 2.67-4.01 7.83-4.47 12.2-5.81 3.26-1.02 3.26-1.02 4.5-3.43 0.226-0.63 0.451-1.26 0.684-1.91 1.94-1.06 1.94-1.06 4-2 0.433-0.496 0.866-0.993 1.31-1.5 2.22-1.97 3.82-2.03 6.75-2.37 5.86-0.951 11.1-2.57 15.9-6.12 1.28-3.09 1.28-3.09 2-6 2.75-1.19 2.75-1.19 6-2l3.12-1.56c3.86-1.93 7.14-2.55 11.4-2.75 0.844-0.0419 1.69-0.0838 2.56-0.127 0.873-0.0393 1.75-0.0786 2.64-0.119 1.33-0.0648 1.33-0.0648 2.69-0.131 2.19-0.106 4.37-0.208 6.56-0.307 0.66 2.31 1.32 4.62 2 7 1-0.0174 1-0.0174 2.02-0.0352 6.72-0.0658 13.3 0.311 20 1.04-0.66 0.66-1.32 1.32-2 2 4.82 1.61 7.56 0.178 12-2 0.66-0.371 1.32-0.743 2-1.12 5.57-2.44 10.4-1.82 16.1-0.348 1.91 0.552 1.91 0.552 3.92 0.473 0.33-2.31 0.66-4.62 1-7 1.24 0.217 1.24 0.217 2.5 0.438 3.83 0.615 7.65 1.1 11.5 1.56v7c3.96-0.495 3.96-0.495 8-1-0.126-0.905-0.126-0.905-0.254-1.83-0.102-0.799-0.204-1.6-0.309-2.42-0.104-0.789-0.209-1.58-0.316-2.39-0.121-2.36 0.183-4.11 0.879-6.36h-4v-3zm-177 59.4c-1.06 0.388-2.13 0.777-3.23 1.18-5.66 2.11-11.1 4.47-16.4 7.28-2.24 1.11-4.49 2-6.85 2.85-5.41 2.09-10.3 4.94-15.3 7.83-4.07 2.34-8.17 4.52-12.4 6.55-4.82 2.35-9.07 5.14-13.4 8.29-1.87 1.33-3.72 2.49-5.73 3.59-12.2 6.73-23.3 16.1-33.9 24.9-2.98 2.42-6.06 4.68-9.2 6.89-0.45 0.393-0.9 0.786-1.36 1.19v2l-1.69 0.75c-2.74 1.48-4.99 3.18-7.31 5.25v2c-0.536 0.227-1.07 0.454-1.62 0.688-5.64 3.12-9.65 7.58-13.8 12.4-1.61 1.87-1.61 1.87-3.32 3.48-1.52 1.31-1.52 1.31-1.29 3.38h-2c-1.44 1.57-2.8 3.21-4.12 4.88-0.795 0.996-1.59 1.99-2.41 3.02-1.22 1.54-1.22 1.54-2.46 3.11-0.782 0.953-1.56 1.91-2.37 2.89-0.723 0.883-1.45 1.77-2.19 2.68l-2 2.44c-1.63 1.86-1.63 1.86-1.43 4h-2c-1.67 1.97-1.67 1.97-3.44 4.56-0.717 1.01-1.43 2.03-2.17 3.07-0.581 0.824-0.581 0.824-1.17 1.67-1.22 1.71-2.47 3.39-3.73 5.07-5.38 7.17-10.5 14.5-15.4 22-0.803 1.23-0.803 1.23-1.62 2.48-6.35 8.52-6.35 8.52-9.5 18.1h-2c-0.261 0.552-0.522 1.1-0.791 1.67-1.23 2.61-2.47 5.22-3.71 7.83-0.455 0.959-0.91 1.92-1.38 2.91-2.37 4.97-4.77 9.92-7.28 14.8-4.8 9.38-8.92 19-12.8 28.8-0.362 0.892-0.725 1.78-1.1 2.7-8.76 21.7-14.8 44.3-19.5 67.2-0.476 2.31-0.968 4.62-1.46 6.93-1.81 8.64-3.39 17.3-4.67 26-0.179 1.2-0.179 1.2-0.362 2.42-2.03 14.5-2.14 29-2.14 43.6-0.00217 3.16-0.0204 6.33-0.0393 9.49-0.0388 14 0.771 27.8 2.22 41.7 0.133 1.33 0.265 2.66 0.397 4 0.324 3.17 0.673 6.34 1.04 9.5 0.126 1.08 0.251 2.17 0.381 3.28 1.28 10.7 3.21 20.9 6.18 31.2 0.613 2.44 1.22 4.87 1.81 7.31 1.51 6.08 3.09 12.1 4.75 18.2 0.296 1.09 0.296 1.09 0.599 2.21 1.14 4.11 2.47 8.08 4.01 12.1 0.973 2.62 1.83 5.27 2.69 7.93 2.15 6.49 4.71 12.8 7.39 19 0.726 1.7 0.726 1.7 1.47 3.44 7.26 16.9 15.7 32.9 25.7 48.3 1.4 2.23 2.66 4.48 3.88 6.81 2.9 5.33 6.51 10.2 10.1 15.1 2.09 2.88 4.12 5.79 6.12 8.73 4.23 6.21 8.72 12.1 13.5 17.9 1.08 1.33 2.15 2.65 3.23 3.98 7 8.6 14.1 17 21.8 25 1.08 1.15 1.08 1.15 2.18 2.32 1.65 1.9 1.65 1.9 3.82 1.68 0.24 0.557 0.48 1.11 0.727 1.69 1.55 2.82 3.47 4.94 5.65 7.31 0.771 0.846 1.54 1.69 2.34 2.56 0.755 0.804 1.51 1.61 2.29 2.44 0.714 0.763 1.43 1.53 2.16 2.31 1.67 1.91 1.67 1.91 3.84 1.69v2c1.71 1.59 3.5 3.1 5.31 4.56 0.986 0.806 1.97 1.61 2.99 2.44 2.59 2.13 2.59 2.13 5.7 3v2c1.65 0.66 3.3 1.32 5 2v2c1.74 1.34 3.55 2.6 5.38 3.81 4.82 3.24 9.54 6.57 14.2 10 7.92 5.82 16 11.1 24.4 16 2.13 1.26 4.24 2.56 6.34 3.87 9.63 6.02 19.4 11.4 29.6 16.3 1.11 0.532 2.22 1.06 3.36 1.61 6.97 3.29 14 6.2 21.2 8.99 3.23 1.32 6.3 2.81 9.41 4.39 6.5 2.93 13.2 5 20 6.88 3.37 0.925 6.69 1.98 10 3.03 7.1 2.2 14.3 3.93 21.5 5.59 1.31 0.304 2.63 0.608 3.94 0.913 8.58 1.98 17.2 3.81 25.8 5.43 5.58 1.06 5.58 1.06 6.68 2.15 1.56 0.215 3.13 0.371 4.7 0.5 0.962 0.0825 1.92 0.165 2.92 0.25 1.01 0.0825 2.03 0.165 3.07 0.25 1.98 0.165 3.97 0.331 5.95 0.5 0.884 0.0722 1.77 0.144 2.68 0.219 1.87 0.196 3.74 0.466 5.6 0.791 6.03 0.958 12.2 0.937 18.3 1.12 0.738 0.0225 1.48 0.0449 2.24 0.0681 11.8 0.343 23.5 0.289 35.3-0.0681 0.718-0.0213 1.44-0.0427 2.17-0.0646 15.5 0.557 15.5 0.557 30.1-2.56 1.45-0.195 2.91-0.345 4.38-0.469 17.1-1.59 33.8-4.52 50.4-8.97 0.702-0.187 1.4-0.374 2.13-0.566 15.1-4.04 29.8-9.08 44.3-14.7 0.672-0.261 1.34-0.523 2.04-0.792 19-7.4 36.7-15.8 54.3-26 2.04-1.19 4.09-2.37 6.15-3.53 13-7.42 25.2-16.2 37.3-24.9 0.757-0.539 1.51-1.08 2.29-1.63 0.733-0.531 1.47-1.06 2.22-1.61 0.668-0.481 1.34-0.961 2.02-1.46 0.723-0.644 0.723-0.644 1.46-1.3v-2c0.536-0.248 1.07-0.495 1.62-0.75 2.96-1.56 5.67-3.28 8.38-5.25v-2c0.804-0.268 1.61-0.536 2.44-0.812 1.27-0.588 1.27-0.588 2.56-1.19 0.33-0.99 0.66-1.98 1-3 1.94-1.12 1.94-1.12 4-2 0.66-0.33 1.32-0.66 2-1v-2h2v-2c0.589-0.262 1.18-0.523 1.79-0.793 2.33-1.27 3.82-2.61 5.65-4.52 0.607-0.625 1.21-1.25 1.84-1.89 0.568-0.592 1.14-1.18 1.72-1.79 5-5 5-5 6.65-6.62 6.03-5.88 6.03-5.88 11.3-12.4v-2h2c3.64-3.48 3.64-3.48 5-8h2c0.66-1.65 1.32-3.3 2-5h2c1.61-1.86 1.61-1.86 3.31-4.38 0.714-1.01 1.43-2.02 2.16-3.06 0.4-0.568 0.8-1.14 1.21-1.72 1.4-1.97 2.84-3.93 4.27-5.88 24-32.7 45.4-68.6 59-107 0.688-1.83 1.38-3.67 2.06-5.5 4.81-13.4 8.54-27.1 12.3-40.8 0.498-1.83 0.498-1.83 1.01-3.7 0.447-1.65 0.447-1.65 0.903-3.34 0.769-2.64 0.769-2.64 1.77-4.64 0.424-2.55 0.805-5.08 1.16-7.64 0.107-0.76 0.214-1.52 0.325-2.3 0.343-2.44 0.681-4.87 1.02-7.31 0.339-2.42 0.679-4.84 1.02-7.26 0.212-1.51 0.422-3.01 0.631-4.52 0.42-3.01 0.858-6.01 1.39-9.01 1.01-6.51 1.17-13.1 1.52-19.7 0.0442-0.815 0.0884-1.63 0.134-2.47 1.36-25.7 1.58-51.2-1.2-76.8-0.161-1.52-0.161-1.52-0.325-3.07-1.98-18.3-5.05-36.2-10.1-53.8-0.69-2.43-1.36-4.87-2.04-7.3-2.31-8.25-4.61-16.4-7.69-24.4-0.915-2.48-1.65-4.98-2.36-7.53-1.1-3.77-2.54-7.04-4.37-10.5-1.35-2.77-2.41-5.61-3.5-8.5-16-41.1-41-84.8-72.6-116-2.25-2.23-4.5-4.46-6.75-6.69-0.884-0.871-0.884-0.871-1.79-1.76-4.35-4.33-4.35-4.33-5.46-6.55h-2c-0.247-0.578-0.495-1.15-0.75-1.75-1.43-2.58-3.03-4.31-5.25-6.25h-2v-2c-1.48-1.5-1.48-1.5-3.44-3.06-3.09-2.62-5.95-5.32-8.75-8.25-3.69-3.74-7.6-7.04-11.8-10.2-0.568-0.442-1.14-0.884-1.72-1.34-2.85-2.37-2.85-2.37-6.34-3.1-0.231-0.596-0.461-1.19-0.699-1.8-1.65-2.78-3.33-3.7-6.11-5.32-4.36-2.65-8.33-5.5-12.3-8.69-6.86-5.44-14.3-9.7-21.9-14-2.88-1.67-5.69-3.45-8.5-5.22-7.63-4.71-15.5-8.89-23.5-12.9-0.789-0.4-1.58-0.8-2.39-1.21-13.5-6.79-27.4-12.4-41.6-17.7-2.64-0.977-5.28-1.97-7.91-2.98-10.6-3.96-21.5-6.98-32.4-9.88-0.716-0.191-1.43-0.382-2.17-0.579-8.83-2.34-17.7-4.38-26.6-6.07-2.89-0.604-2.89-0.604-4.89-1.6-2.68-0.356-5.36-0.664-8.05-0.938-0.81-0.085-1.62-0.17-2.45-0.258-1.72-0.18-3.44-0.358-5.17-0.534-2.59-0.266-5.18-0.537-7.78-0.81-72.4-7.56-140 5.12-208 30z" fill="#101A20"/>
<path transform="translate(793 428)" d="m0 0c0.962-0.00258 1.92-0.00516 2.91-0.00781 2.46 0.133 2.46 0.133 4.46 1.13 1.71 0.0727 3.41 0.0837 5.12 0.0625 1.02-0.00773 2.04-0.0155 3.08-0.0234 2.15-0.026 4.3-0.052 6.45-0.0781 1.02-0.00773 2.04-0.0155 3.09-0.0234 0.935-0.0116 1.87-0.0232 2.83-0.0352 2.42 0.0977 2.42 0.0977 5.42 1.1 2.16 0.0669 4.3-0.00128 6.45-0.0625 3.25 0.0797 6.34 0.562 9.55 1.06 1.19 0.179 1.19 0.179 2.41 0.361 15.8 2.38 31.2 5.63 46.6 9.64 0.908 0.234 1.82 0.469 2.75 0.71 33.5 8.75 72.1 22 99.2 44.3v2c0.66 0.33 1.32 0.66 2 1-0.33 0.66-0.66 1.32-1 2-1.33 0.354-2.66 0.685-4 1-3.12 1.63-3.12 1.63-3.69 4.12-0.103 0.619-0.206 1.24-0.312 1.88-1.28 0.227-2.56 0.454-3.88 0.688-2.19 0.474-2.19 0.474-4.12 1.31-1.6 2.48-1.6 2.48-2 5-5.9-1.69-11.1-4-16.6-6.81-6.15-3.17-12.3-5.83-18.9-8.11-3.31-1.17-6.45-2.47-9.56-4.07-3.85-1.97-7.74-3.48-11.8-4.88-0.721-0.25-1.44-0.501-2.19-0.759-16.5-5.66-33-10.6-50-14.4-1.09-0.259-2.18-0.518-3.3-0.785-8.08-1.86-16.1-2.91-24.3-3.75-3.84-0.393-7.63-0.936-11.4-1.53-23.7-3.48-53.6-5.09-76.9 1.06-4.81 0.77-9.62 1.28-14.5 1.72-18.1 2.02-36.1 6.94-53.5 12.3-0.866 0.265-1.73 0.53-2.62 0.803-19.9 6.12-39 13.7-57.5 23.3-2.91 1.48-5.85 2.89-8.79 4.32-11 5.51-21.7 11.7-31.7 18.9-2.68 1.92-5.43 3.71-8.19 5.51-9.39 6.24-18.3 13.1-26.5 20.8-1.71 1.4-1.71 1.4-3.71 1.4-0.33 0.99-0.66 1.98-1 3-1.36 1.33-1.36 1.33-3.19 2.81-9.37 7.97-18 16.8-25.7 26.5-1.94 2.46-3.94 4.85-5.97 7.24-4.75 5.61-9.05 11.4-13.2 17.5-1.06 1.48-2.12 2.96-3.19 4.44-1.28 1.85-2.55 3.7-3.81 5.56-0.403 0.592-0.806 1.18-1.22 1.79-31.9 47.4-52.4 104-58.8 161-0.0851 0.749-0.17 1.5-0.258 2.27-1.47 13.2-2.11 26.3-2.05 39.6 0.00216 0.926 0.00431 1.85 0.00653 2.81 0.173 46.7 8.9 93.2 27.3 136l1.18 3.05c2.81 7.19 6.37 13.9 10 20.7 2.78 5.21 5.44 10.5 7.94 15.8 0.443 0.937 0.443 0.937 0.894 1.89 1.98 4.29 1.98 4.29 1.98 6.54h-2v2h2c1.38 1.63 2.72 3.29 4 5-2.62 2.15-4.64 3.4-8 4-0.33 2.31-0.66 4.62-1 7-1.98 0.33-3.96 0.66-6 1-0.33 0.99-0.66 1.98-1 3-0.33-0.66-0.66-1.32-1-2h-2c-0.33 0.66-0.66 1.32-1 2-4.86-4.28-7.69-9.24-10.8-14.9-0.528-0.943-1.06-1.89-1.6-2.86-1.06-1.89-2.11-3.79-3.16-5.69-1.19-2.15-2.39-4.28-3.6-6.42-9.36-16.9-16.8-35-23.1-53.2-0.605-1.74-1.23-3.47-1.85-5.19-2.48-7.04-4.19-14.2-5.84-21.5-0.865-3.81-1.86-7.58-2.87-11.4-1.94-7.56-3.44-15.2-4.91-22.9-0.267-1.39-0.536-2.78-0.809-4.17-1.88-9.61-2.95-19.1-3.41-28.9-0.105-1.78-0.21-3.56-0.316-5.34-0.593-11.6-0.789-23.1-0.809-34.7-0.00259-0.686-0.00518-1.37-0.00784-2.08-0.0405-13.6 0.678-27 2.63-40.5 0.13-0.931 0.26-1.86 0.395-2.82 1.25-8.88 2.96-17.5 5.01-26.3 0.468-2 0.932-4 1.4-6 2.84-12.2 6.16-24 10.1-35.9 0.382-1.15 0.764-2.31 1.16-3.5 3.06-9.17 6.58-18.1 10.4-26.9 0.566-1.39 1.13-2.78 1.69-4.17 4.75-11.7 10.2-22.8 16.3-33.8 0.513-0.935 1.03-1.87 1.55-2.83 6.65-12.1 13.5-23.9 21.4-35.2 0.697-0.991 1.39-1.98 2.11-3 3.7-5.17 7.56-10.2 11.6-15.1 1.8-2.22 3.59-4.45 5.37-6.7 5.62-7.05 11.3-13.8 17.8-20 1.98-1.95 3.78-3.96 5.56-6.09 7.79-9.07 17.3-16.6 26.6-24.1 1.83-1.52 3.67-3.04 5.5-4.56 9.1-7.42 18.7-14 28.6-20.2 1.98-1.25 3.96-2.52 5.93-3.78 6.83-4.36 13.6-8.44 21-11.9 3.3-1.61 6.48-3.38 9.7-5.16 18.6-10 38.3-17.6 58.3-24.3 1.03-0.347 2.05-0.693 3.11-1.05 32.8-10.9 69.1-19.5 104-18.9 1.82 0.0256 3.64 0.0466 5.46 0.0625 1.18 0.0174 1.18 0.0174 2.39 0.0352 4.04-0.179 7.71-1.23 11.8-1.22z" fill="#FBFCFE"/>
<path transform="translate(476,353)" d="m0 0c0.951 0.29 1.9 0.58 2.88 0.879 12.4 4.12 25.7 12.1 33.1 23.1v2h2c1.74 2.55 3.33 5.09 4.88 7.75 0.452 0.776 0.904 1.55 1.37 2.35 10.5 18.6 12.5 39.9 7.15 60.4-3.86 13.3-11.3 25.1-21.4 34.5-0.634 0.616-1.27 1.23-1.92 1.87-14.9 14-33.8 19.3-53.8 19.3-0.815 0.0122-1.63 0.0245-2.47 0.0371-4.72 0.0114-8.39-0.504-12.8-2.22-1.28-0.206-2.56-0.413-3.88-0.625-10.5-2.25-22.7-8.72-30.1-16.4v-2c-0.581-0.25-1.16-0.5-1.76-0.758-11.5-6.4-17.5-21.6-21.3-33.6-1.07-4.21-1.61-8.23-1.79-12.6-0.0109-2.14-0.0109-2.14-1.14-4.07-0.37-21 6.85-41.4 21-57 0.7-0.781 1.4-1.56 2.12-2.37 5.35-5.67 11.1-9.8 17.9-13.6 0.937-0.536 1.87-1.07 2.84-1.62 17.8-9.56 37.9-11.5 57.2-5.38z" fill="#FBFCFE"/>
<path transform="translate(1132,630)" d="m0 0c4.26 3.63 6.47 8.11 9 13 0.475 0.918 0.95 1.84 1.44 2.78 19.9 39.2 33 81.6 38.6 125 0.166 1.25 0.166 1.25 0.334 2.52 10.3 78.1-5.05 160-41.4 230-0.946 1.82-1.87 3.64-2.8 5.47-7 13.6-15.2 26.7-24.4 39-1.72 2.32-3.34 4.68-4.96 7.07-5.17 7.43-11 14.3-16.8 21.3-0.663 0.81-1.33 1.62-2.01 2.45-4.14 4.92-8.84 9.17-13.6 13.4-1.49 1.33-2.95 2.69-4.36 4.1-0.33-0.66-0.66-1.32-1-2-0.825-0.33-1.65-0.66-2.5-1-2.5-1-2.5-1-3.5-3-1.9-0.278-1.9-0.278-4.12-0.312-5.28-0.464-7.91-2.22-11.9-5.69-0.495-1.49-0.495-1.49-1-3 0.71-0.675 0.71-0.675 1.43-1.36 4.79-4.66 9.04-9.58 13.2-14.8 2.34-2.84 4.78-5.53 7.29-8.22 8.18-8.9 15.3-18.6 22.1-28.6 0.701-0.991 1.4-1.98 2.12-3 12.8-18.3 23.3-38.4 31.9-59 0.276-0.653 0.552-1.31 0.836-1.98 1.54-3.66 3.02-7.35 4.42-11.1 0.507-1.34 1.02-2.67 1.54-4.01 11-28.3 16.8-59.2 20.2-89.3 0.167-1.44 0.167-1.44 0.337-2.91 0.142-1.27 0.142-1.27 0.288-2.57 0.325-2.19 0.325-2.19 1.33-5.19 0.0681-2.71-0.00203-5.4-0.0625-8.11 0.0625-2.89 0.0625-2.89 0.558-5.64 0.531-3.42 0.634-6.65 0.637-10.1 0.00129-1.28 0.00258-2.56 0.00391-3.88-0.00209-0.658-0.00419-1.32-0.00635-1.99-0.00539-2.03-1.66e-5 -4.05 0.00635-6.08-0.00129-1.27-0.00258-2.55-0.00391-3.86-0.00169-1.75-0.00169-1.75-0.00342-3.53 0.0618-2.75 0.0618-2.75-1.13-4.79-0.0698-2.83 0.00297-5.64 0.0625-8.47 0.117-2.53 0.117-2.53-1.06-4.53-0.351-2.14-0.655-4.29-0.938-6.44-0.173-1.31-0.345-2.61-0.523-3.96-0.18-1.39-0.359-2.77-0.539-4.16-0.179-1.36-0.359-2.72-0.539-4.08-0.718-5.46-1.43-10.9-1.98-16.4-0.46-3.77-1.21-7.19-2.23-10.8-0.36-1.3-0.719-2.59-1.08-3.89-0.285-1.02-0.285-1.02-0.576-2.06-0.63-2.3-1.23-4.6-1.83-6.9-0.21-0.812-0.421-1.62-0.638-2.46-0.402-1.56-0.803-3.11-1.2-4.67-2.99-11.5-6.69-22.5-11.2-33.4-0.728-1.77-0.728-1.77-1.47-3.57-5.63-13.6-11.5-27-18.2-40.1 2.44-2.67 5.12-4.46 8.19-6.38 1.45-0.911 1.45-0.911 2.94-1.84 0.949-0.589 1.9-1.18 2.88-1.79 1.56-0.979 3.13-1.96 4.69-2.94 1.64-1.02 1.64-1.02 3.31-2.06z" fill="#FBFCFE"/>
<path transform="translate(593,1128)" d="m0 0c5.74 2.13 11 5.57 16.1 8.81 6.64 4.13 13.4 7.69 20.5 11.1 1.66 0.792 3.31 1.59 4.96 2.4 43.3 21.1 91.1 32.9 139 35.5 3.23 0.246 3.23 0.246 5.99 0.756 6.44 0.972 13 0.574 19.5 0.428 0.797-0.0172 1.59-0.0343 2.41-0.052 23.6-0.588 47.3-3.91 70.3-8.89 0.994-0.2 1.99-0.4 3.01-0.605 10.2-2.23 20.2-5.38 30.2-8.52 2.46-0.771 4.93-1.53 7.4-2.28 13.2-4.13 25.8-9.84 38.4-15.6 1.28-0.578 1.28-0.578 2.58-1.17 8.37-3.79 16.3-7.72 24-12.8 2.42-1.05 2.42-1.05 4.43-0.664 2.95 2.38 4.94 5.37 7.05 8.48 0.866 1.25 1.73 2.49 2.6 3.74 0.402 0.585 0.805 1.17 1.22 1.77 1.33 1.91 2.71 3.77 4.12 5.61-1.49 4.4-4.8 6.06-8.62 8.25-0.668 0.391-1.34 0.781-2.02 1.18-6.61 3.81-13.4 7.25-20.3 10.6-2.08 1.01-4.14 2.05-6.2 3.09-23.4 11.7-48.2 19.9-73.6 26.1-2.16 0.529-4.31 1.07-6.46 1.62-5.91 1.52-11.8 2.8-17.8 3.67-1.66 0.247-3.32 0.495-4.98 0.742-1.25 0.185-1.25 0.185-2.53 0.374-2.39 0.368-4.76 0.778-7.14 1.2-13.7 2.38-27.4 2.79-41.3 3.02-3.08 0.16-6 0.618-9.03 1.16-1.75 0.0859-3.5 0.13-5.25 0.125-0.851 0.00258-1.7 0.00516-2.58 0.00781-2.17-0.133-2.17-0.133-4.17-1.13-2.99-0.0471-5.95-0.0429-8.94 0-7.09 0.0524-14-0.152-21.1-1-1.13-0.108-1.13-0.108-2.27-0.219-8.48-0.833-16.8-2.59-25.1-4.29-2.81-0.539-5.63-0.988-8.46-1.43-5.04-0.827-9.94-1.93-14.9-3.22-2.98-0.775-5.98-1.5-8.98-2.23-30.5-7.42-60-18.9-87.2-34.5-2.51-1.42-5.07-2.76-7.62-4.1-5.3-2.89-10.4-6.07-15.6-9.25-0.855-0.524-1.71-1.05-2.59-1.59-0.797-0.501-1.59-1-2.42-1.52-0.721-0.449-1.44-0.898-2.18-1.36-1.68-1.35-1.68-1.35-2.68-4.35 1.12-1.69 1.12-1.69 2.88-3.56 0.641-0.694 1.28-1.39 1.94-2.1 0.721-0.771 1.44-1.54 2.18-2.34 1.61-1.81 3.21-3.62 4.81-5.44 3.94-4.44 3.94-4.44 6.19-5.56z" fill="#FCFDFF"/>
<path transform="translate(1216 340)" d="m0 0c1.87 1.9 2.3 3.11 2.68 5.71h2c4.32 8.11 8.29 15.9 10 25 0.265 1.4 0.265 1.4 0.535 2.82 1.77 12.9-2.71 25.4-10.4 35.7-9.54 11.5-21.6 17.4-36.1 19.5-3.48 0.099-6.6-0.292-10-1-0.817-0.116-1.63-0.232-2.48-0.352-12.8-2.02-23.7-9.53-31.9-19.3-8.59-12.1-11.6-25.5-9.17-40.1 0.682-2.49 1.53-4.78 2.54-7.16 0.568-1.41 0.568-1.41 1.15-2.85 6-13.4 16-23.2 29.6-28.8 4.34-1.59 8.46-2.03 13.1-2.21 0.789-0.0342 1.58-0.0685 2.39-0.104 14.6-0.467 24.6 4.45 36.1 13.2z" fill="#FBFCFE"/>
<path transform="translate(452,367)" d="m0 0h3v2c0.66-0.33 1.32-0.66 2-1 12.8-1.46 22.9 3.44 33 11 0.592 0.427 1.18 0.853 1.79 1.29 11.3 8.85 18.8 22.6 21.2 36.7 1.18 17.6 0.229 34.2-11.7 48.2-5.46 6.15-11.1 11.6-18.2 15.8-0.79 0.486-1.58 0.972-2.39 1.47-6.91 3.62-13.4 5.1-21.1 5.78-0.922 0.0856-1.84 0.171-2.79 0.259-6.55 0.523-12.6 0.358-18.9-1.57 0.33-0.99 0.66-1.98 1-3-2.48 0.495-2.48 0.495-5 1-0.33-0.99-0.66-1.98-1-3-0.66-0.33-1.32-0.66-2-1-0.949-2.93-1.23-4.43-0.0625-7.31 0.351-0.557 0.701-1.11 1.06-1.69 1.65 0.99 3.3 1.98 5 3 0.66-1.65 1.32-3.3 2-5 0.598 0.227 1.2 0.454 1.81 0.688 0.722 0.103 1.44 0.206 2.19 0.312 1.65-1.4 1.65-1.4 3-3h2c2.19-1.77 2.19-1.77 4-4v-3c0.639-0.413 1.28-0.825 1.94-1.25 2.45-1.71 2.45-1.71 2.81-5.44 0.0825-1.09 0.165-2.19 0.25-3.31 2.48-0.99 2.48-0.99 5-2 0.417-2.87 0.417-2.87 0-6-2.39-1.94-2.39-1.94-5-3 0.366-0.549 0.732-1.1 1.11-1.66 1.22-3.2 0.419-4.59-0.859-7.71-0.385-0.967-0.771-1.93-1.17-2.93-0.357-0.889-0.714-1.78-1.08-2.7-0.351-1.15-0.701-2.31-1.06-3.5-0.752-2.53-0.752-2.53-2.5-4.06-1.44-1.44-1.44-1.44-1.88-3.75-0.733-3.5-2.55-5.77-4.56-8.69v-2c-0.99-0.33-1.98-0.66-3-1 0.195-0.562 0.389-1.12 0.59-1.7 0.504-2.82-0.0444-4.37-1.03-7.05-0.287-0.799-0.575-1.6-0.871-2.42-0.342-0.905-0.342-0.905-0.691-1.83h2c0.125-5.58 0.125-5.58-1-11 1.32-0.33 2.64-0.66 4-1-0.33-1.98-0.66-3.96-1-6 2.65-1.77 4.03-2.31 7-3l1-1z" fill="#000912"/>
<path transform="translate(1202 349)" d="m0 0c9.21 8.8 13.1 17.9 13.8 30.6-0.0317 9.92-2.61 16.5-9.61 23.5-8.84 7.82-17.6 9.82-29.2 9.5-9.21-0.577-15.8-5.96-22.3-12.1-1.86-2.28-1.86-2.28-2.3-6.09 0.144-1.05 0.289-2.1 0.438-3.19-0.48-0.615-0.959-1.23-1.45-1.86-2.8-3.87-1.95-8.55-1.55-13.1 1-3.69 1-3.69 2-6l4 1c-0.66-0.99-1.32-1.98-2-3l4-1c-0.124-1.64-0.124-1.64-0.25-3.31 0.25-3.69 0.25-3.69 2.12-5.62 2.12-1.06 2.12-1.06 4.12-1.06 0.33-0.66 0.66-1.32 1-2 2.06-1.12 2.06-1.12 4-2-0.495-0.454-0.99-0.908-1.5-1.38-1.5-1.62-1.5-1.62-1.5-3.62 0.99-0.33 1.98-0.66 3-1 0.66-0.99 1.32-1.98 2-3 9.98-4.22 22.9-1.84 31.2 4.76z" fill="#000912"/>
<path transform="translate(367,1028)" d="m0 0c3.66 2.72 4.14 6.63 5.19 10.8 3.51 12.8 8.87 24.4 20.8 31.2 6.22 3.01 12.7 5.62 19.3 7.72 2.19 0.725 2.19 0.725 5.73 2.28 0.721 2.1 0.721 2.1 1 4-0.62 0.219-1.24 0.438-1.88 0.664-3.05 1.09-6.08 2.21-9.12 3.34-1.24 0.447-2.48 0.895-3.75 1.36-13.3 4.91-21.1 10.8-27.4 23.7-1.98 4.44-3.44 9.03-4.86 13.7-0.872 2.84-1.86 5.54-3.01 8.28-0.99-0.33-1.98-0.66-3-1-0.992-2.99-0.992-2.99-1.88-6.88-2.8-11.4-7.44-24.9-17.6-31.9-7.65-4.21-16.5-7.39-25-9.24-1.18-0.334-2.35-0.668-3.56-1.01-0.495-1.48-0.495-1.48-1-3 1.06-0.437 1.06-0.437 2.13-0.883 2.1-0.873 4.2-1.75 6.3-2.63 2.38-0.99 4.77-1.96 7.16-2.91 13.3-5.38 21.8-11.8 27.5-25.2 2.12-5.62 3.57-11.4 5.04-17.2 0.832-3.12 0.832-3.12 1.83-5.12z" fill="#FCFDFF"/>
<path transform="translate(991,771)" d="m0 0h2c0.181 0.579 0.361 1.16 0.547 1.75 7.72 24.7 7.72 24.7 27.2 40.9 5.29 2.52 10.9 4.27 16.4 6 2.81 1.31 2.81 1.31 3.71 3.46 0.0322 0.61 0.0645 1.22 0.0977 1.85-3.2 1.76-5.9 2.98-9.5 3.69-5.63 1.26-10.4 4.52-15.3 7.44-3.17 1.88-3.17 1.88-5.47 2.88-2.23 1.31-2.7 2.65-3.7 5-0.762 1.15-1.53 2.3-2.31 3.44-5.45 8.65-8.26 18.7-10.7 28.6-1.32-0.33-2.64-0.66-4-1-0.242-0.978-0.485-1.96-0.734-2.96-3.74-14.8-8.9-29.3-22.3-38-7.33-3.53-15.2-5.83-23-8v-4c1.15-0.516 2.31-1.03 3.5-1.56 0.815-0.366 1.63-0.732 2.47-1.11 2.28-1 4.57-1.96 6.88-2.91 11.7-4.83 20.8-9.35 26.2-21.4 0.357-0.784 0.714-1.57 1.08-2.38 2.39-5.59 3.94-11.2 5.3-17.2 0.613-2.47 0.613-2.47 1.61-4.47z" fill="#FCFDFF"/>
<path transform="translate(1255,849)" d="m0 0c0.66 0.33 1.32 0.66 2 1 0.824 2.62 1.55 5.22 2.25 7.88 4.06 14.3 9.25 22.2 22.5 29.7 3.56 1.85 6.93 3.36 10.8 4.53 2.5 0.938 2.5 0.938 3.88 3.06 0.309 0.928 0.309 0.928 0.625 1.88-3.13 2.09-5.58 2.82-9.19 3.81-5.02 1.48-9.07 3.21-13.3 6.23-1.49 0.953-1.49 0.953-3.49 0.953-0.271 0.575-0.541 1.15-0.82 1.74-1.19 2.29-2.56 4.28-4.05 6.38-4.76 7.06-7.29 14.6-9.12 22.9-1.32-0.33-2.64-0.66-4-1-0.219-0.883-0.438-1.77-0.664-2.68-3.12-11.8-7.66-24.2-18.1-31.6-5.97-3.25-12.7-4.9-19.2-6.76 0.33-0.99 0.66-1.98 1-3 2.7-1.25 5.34-2.34 8.12-3.38 9.24-3.44 17.1-7.65 21.9-16.6 1.54-3.99 2.72-8.08 3.9-12.2 3.12-10.8 3.12-10.8 5.1-12.8z" fill="#FCFDFF"/>
<path transform="translate(793,224)" d="m0 0c3.3 2.64 4.06 5.67 5.31 9.62 4.02 12 10.1 19.2 21.2 25.2 3.37 1.63 6.84 2.89 10.4 4.1 2.5 1.32 3.08 2.49 4.07 5.09-1.23 0.437-1.23 0.437-2.49 0.883-12.5 4.58-23.2 9.65-29.6 21.9-0.647 1.41-1.27 2.83-1.88 4.25-0.669 1.57-0.669 1.57-1.35 3.17-1.23 2.94-2.45 5.88-3.65 8.83-3.82-2.55-3.96-4.3-5.31-8.62-1.99-6.01-4.41-10.7-8.69-15.4-0.784-0.887-1.57-1.77-2.38-2.69-5.79-5.1-11.8-7.97-19.1-10.4-2.29-0.813-4.37-1.76-6.52-2.89 0.33-0.99 0.66-1.98 1-3 2.46-1.01 4.85-1.87 7.38-2.69 10.3-3.64 19-8.44 24.3-18.4 2.11-4.86 3.74-9.85 5.3-14.9 0.98-3.03 0.98-3.03 1.98-4.03z" fill="#FCFDFF"/>
<path transform="translate(452,367)" d="m0 0h3v2c0.66-0.33 1.32-0.66 2-1 1.96-0.123 3.92-0.176 5.88-0.188 1.05-0.0142 2.1-0.0284 3.18-0.043 2.88 0.225 4.51 0.741 6.95 2.23v2c-1.21 0.464-1.21 0.464-2.44 0.938-2.45 0.826-2.45 0.826-3.56 2.06-2 0.0408-4 0.0425-6 0-0.33 1.32-0.66 2.64-1 4h-4c-0.124 0.577-0.248 1.15-0.375 1.75-0.625 2.25-0.625 2.25-1.65 3.86-1.45 3.54-1.27 7.06-1.23 10.8-0.00773 0.751-0.0155 1.5-0.0234 2.28 0.0237 6.73 1.57 10.7 5.9 16 3.38 4.1 3.38 4.1 3.38 6.31 0.99 0.33 1.98 0.66 3 1 1.01 1.66 2.01 3.33 3 5 1.65 1.69 3.31 3.36 5 5 0.99 1.49 0.99 1.49 2 3-0.66 0.99-1.32 1.98-2 3-0.286 3.29-0.209 5.5 1.06 8.56 1.12 2.91 0.782 4.48-0.0625 7.44-2.64-0.66-5.28-1.32-8-2 0.495 3.47 0.495 3.47 1 7h3c-0.0412 0.949-0.0825 1.9-0.125 2.88-0.225 3.23-0.225 3.23 2.12 5.12-4.46 1.81-7.31 2.12-12 1 0.33 2.31 0.66 4.62 1 7-2.97 0.495-2.97 0.495-6 1 0.0412 0.949 0.0825 1.9 0.125 2.88-0.125 3.12-0.125 3.12-2.12 5.12 0.32 2.6 0.32 2.6 1 5-3.94 1.03-6.84 0.877-10.8 0.0625-0.976-0.195-1.95-0.389-2.96-0.59-1.1-0.234-1.1-0.234-2.23-0.473 0.33-0.99 0.66-1.98 1-3-2.48 0.495-2.48 0.495-5 1-0.33-0.99-0.66-1.98-1-3-0.66-0.33-1.32-0.66-2-1-0.949-2.93-1.23-4.43-0.0625-7.31 0.351-0.557 0.701-1.11 1.06-1.69 1.65 0.99 3.3 1.98 5 3 0.66-1.65 1.32-3.3 2-5 0.598 0.227 1.2 0.454 1.81 0.688 0.722 0.103 1.44 0.206 2.19 0.312 1.65-1.4 1.65-1.4 3-3h2c2.19-1.77 2.19-1.77 4-4v-3c0.639-0.413 1.28-0.825 1.94-1.25 2.45-1.71 2.45-1.71 2.81-5.44 0.0825-1.09 0.165-2.19 0.25-3.31 2.48-0.99 2.48-0.99 5-2 0.417-2.87 0.417-2.87 0-6-2.39-1.94-2.39-1.94-5-3 0.366-0.549 0.732-1.1 1.11-1.66 1.22-3.2 0.419-4.59-0.859-7.71-0.385-0.967-0.771-1.93-1.17-2.93-0.357-0.889-0.714-1.78-1.08-2.7-0.351-1.15-0.701-2.31-1.06-3.5-0.752-2.53-0.752-2.53-2.5-4.06-1.44-1.44-1.44-1.44-1.88-3.75-0.733-3.5-2.55-5.77-4.56-8.69v-2c-0.99-0.33-1.98-0.66-3-1 0.195-0.562 0.389-1.12 0.59-1.7 0.504-2.82-0.0444-4.37-1.03-7.05-0.287-0.799-0.575-1.6-0.871-2.42-0.342-0.905-0.342-0.905-0.691-1.83h2c0.125-5.58 0.125-5.58-1-11 1.32-0.33 2.64-0.66 4-1-0.33-1.98-0.66-3.96-1-6 2.65-1.77 4.03-2.31 7-3l1-1z" fill="#131D23"/>
<path transform="translate(796,1338)" d="m0 0c3.02 2.53 4.02 5.22 5.38 8.88 4.8 11.8 15.5 16.9 26.6 22.1v4c-0.846 0.291-1.69 0.583-2.56 0.883-11.9 4.31-18.8 8.57-24.4 20.1-1.13 2.65-2.09 5.26-3 8-0.99-0.33-1.98-0.66-3-1-1.14-2.41-1.14-2.41-2.25-5.5-3.97-9.94-8.93-16.1-18.8-20.5-0.679-0.307-1.36-0.614-2.06-0.93-1.64-0.715-3.29-1.4-4.94-2.07-0.66-0.33-1.32-0.66-2-1v-2c1.17-0.531 2.34-1.06 3.54-1.61 1.55-0.713 3.1-1.43 4.64-2.14 0.769-0.348 1.54-0.696 2.33-1.05 7.14-3.31 11.4-6.09 14.6-13.6 1.85-4.27 3.76-8.48 5.88-12.6z" fill="#FCFDFF"/>
<path transform="translate(1167,1163)" d="m0 0c1.05 2.01 1.99 3.97 2.75 6.11 3.56 9.68 11.4 13.8 20.4 18 0.617 0.28 1.23 0.559 1.87 0.848v3c-2.1 1.15-4.21 2.29-6.31 3.44-0.892 0.488-0.892 0.488-1.8 0.986-2.61 1.41-5.06 2.64-7.88 3.58-1.07 2.25-1.07 2.25-2 5-1.02 2.11-2.07 4.22-3.12 6.31-0.539 1.07-1.08 2.14-1.63 3.24-0.41 0.808-0.82 1.62-1.24 2.45h-2c-1.32-2.27-2.63-4.54-3.94-6.81-0.373-0.643-0.746-1.29-1.13-1.95-1.57-2.72-2.94-5.25-3.93-8.24-1.85-1.05-1.85-1.05-4-2-0.578-0.474-1.15-0.949-1.75-1.44-3.21-2.23-6.57-3.27-10.2-4.56v-3c0.808-0.375 1.62-0.75 2.45-1.14 1.07-0.512 2.14-1.02 3.24-1.55 1.06-0.499 2.11-0.998 3.2-1.51 5.88-3.4 8.78-7.56 11.8-13.6 3.11-6.15 3.11-6.15 5.31-7.25z" fill="#FCFDFF"/>
<path transform="translate(594,291)" d="m0 0c3.31 2.21 3.69 3.15 5.19 6.69 3.89 8.04 9.6 12.3 17.9 15.3 2.37 1.28 2.92 2.56 3.88 5.02-1.01 0.473-2.03 0.946-3.07 1.43-10.2 4.96-15.6 9.35-19.8 20.1-0.371 1.13-0.742 2.27-1.12 3.44-1.88-0.242-1.88-0.242-4-1-1.09-1.82-1.09-1.82-1.94-4.12-1.91-4.73-4.29-10.5-9.06-12.9v-2c-0.592-0.182-1.18-0.364-1.79-0.551-4.42-1.41-8.33-2.82-12.2-5.45 2.23-2.5 4.22-3.69 7.31-4.94 9.31-4.03 13.5-8.91 17.5-18.1 0.392-0.99 0.784-1.98 1.19-3z" fill="#FCFDFF"/>
<path transform="translate(766,1031)" d="m0 0c2.53 2.23 3.53 4.08 4.62 7.25 2.61 6.15 7.44 9.93 13.4 12.7 0.924 0.362 0.924 0.362 1.87 0.73 3.42 1.47 3.69 2.06 5.06 5.31-0.592 0.254-1.18 0.508-1.79 0.77-2.41 1.05-4.81 2.14-7.21 3.23-0.887 0.392-1.77 0.784-2.69 1.19-5.63 4.41-8.8 11.3-11.3 17.8-3-1-3-1-3.96-2.82-0.282-0.761-0.565-1.52-0.855-2.3-4.04-9.5-10-13.4-19.2-17.9v-3c0.918-0.403 1.84-0.807 2.78-1.22 10.5-5.06 14.8-11.1 19.2-21.8z" fill="#FCFDFF"/>
<path transform="translate(513,713)" d="m0 0c2 2 2 2 3.56 5.62 3.31 6.77 9.2 11.5 15.9 14.7 1.15 0.557 2.31 1.11 3.5 1.69 0.495 1.49 0.495 1.49 1 3-0.808 0.364-1.62 0.727-2.45 1.1-11 5.18-14.9 10.9-19.6 21.9-2.49-0.975-3.75-1.54-5.05-3.92-0.271-0.749-0.541-1.5-0.82-2.27-3.79-9.09-9.18-13-18.1-16.8v-4c0.592-0.254 1.18-0.508 1.79-0.77 0.79-0.344 1.58-0.688 2.39-1.04 0.777-0.336 1.55-0.673 2.36-1.02 1.22-0.578 1.22-0.578 2.46-1.17 0.835-0.392 1.67-0.784 2.53-1.19 3.36-2.47 4.86-5.36 6.78-9 0.359-0.654 0.718-1.31 1.09-1.98 0.878-1.6 1.74-3.22 2.6-4.83z" fill="#FCFDFF"/>
<path transform="translate(334,498)" d="m0 0c3 1 3 1 4.11 3.07 0.536 1.29 0.536 1.29 1.08 2.61 3.13 6.62 7.65 9.47 13.8 13.1 0.66 0.413 1.32 0.825 2 1.25v2c0.66 0.33 1.32 0.66 2 1-2.78 1.68-5.49 3.23-8.44 4.62-5.67 3.22-8.66 9.03-10.9 14.9-0.309 1.21-0.309 1.21-0.625 2.44-1.92-0.277-1.92-0.277-4-1-0.702-1.91-1.4-3.81-2.04-5.74-2.53-5.98-6.9-10.1-12.8-12.7-1.39-0.534-2.79-1.06-4.19-1.56-0.66-0.33-1.32-0.66-2-1 0.495-1.49 0.495-1.49 1-3 2.04-0.887 2.04-0.887 4.62-1.69 7.42-2.79 11.3-7.88 14.8-14.8 0.516-1.15 1.03-2.31 1.56-3.5z" fill="#FCFDFF"/>
<path transform="translate(1304,632)" d="m0 0h2c0.268 0.797 0.536 1.59 0.812 2.41 2.77 7.48 5.29 11.6 12.2 15.6 1.5 0.891 3 1.79 4.5 2.69 0.67 0.375 1.34 0.75 2.03 1.14 0.485 0.388 0.969 0.776 1.47 1.18v3c-0.652 0.28-1.3 0.559-1.98 0.848-9.91 4.54-14.1 10.1-18 20.2-3-1-3-1-4.03-2.86-0.3-0.77-0.601-1.54-0.91-2.33-0.349-0.815-0.699-1.63-1.06-2.47-0.331-0.773-0.663-1.55-1-2.34-3.27-6.94-9.3-9.03-16-12v-3c0.736-0.364 1.47-0.727 2.23-1.1 9.63-4.96 13.9-9.72 17.8-19.9v-1z" fill="#FBFCFE"/>
<path transform="translate(1248,492)" d="m0 0h2c0.908 1.34 1.75 2.72 2.56 4.12 2.88 4.54 5.93 6.89 10.6 9.49 1.86 1.39 1.86 1.39 2.62 3.55 0.0786 0.605 0.157 1.21 0.238 1.83-0.664 0.329-1.33 0.657-2.01 0.996-6.69 3.6-10 7-13 14-2.83-0.351-3.82-0.785-5.7-3-0.766-1.21-0.766-1.21-1.55-2.44-0.521-0.803-1.04-1.61-1.58-2.43-1.17-2.13-1.17-2.13-1.17-4.13-2.97-0.99-5.94-1.98-9-3v-4c0.603-0.303 1.21-0.606 1.83-0.918 5.99-3.14 9.38-5.98 12.8-11.9 0.454-0.722 0.908-1.44 1.38-2.19z" fill="#FCFDFF"/>
<path transform="translate(270,805)" d="m0 0h2c0.93 1.36 1.79 2.76 2.62 4.19 2.7 4.25 5.26 6.42 9.74 8.64 1.64 1.17 1.64 1.17 2.37 3.3 0.0889 0.615 0.178 1.23 0.27 1.86-0.888 0.493-0.888 0.493-1.79 0.996-6.19 3.73-9.29 7.41-12.2 14-3.38-2.32-5.34-4.44-7.25-8-2.8-4.82-6.61-6.3-11.8-8 2.36-2.65 4.21-4.11 7.44-5.69 4.64-2.47 6.42-6.69 8.56-11.3z" fill="#FCFDFF"/>
<path transform="translate(734,573)" d="m0 0c2.14 2.14 4.27 4.27 6.38 6.44 2.77 2.7 5.63 5.12 8.62 7.56-1.36 4.07-3.26 4.13-7 6-2.73 2.93-4.28 6.4-6 10-2.72-2.56-4.9-4.83-6.81-8.06-2.82-3.79-5.9-5.17-10.2-6.94 2.02-2.17 3.73-3.86 6.38-5.25 3.8-2.53 6.05-6.02 8.62-9.75z" fill="#FCFDFF"/>
<path transform="translate(479,1016)" d="m0 0c2.91 3.29 4.5 5.6 5 10h-2c-0.33 0.99-0.66 1.98-1 3h-4c0.506 2.17 1 4 2 6-0.406 1.89-0.897 3.77-1.44 5.62-0.431 1.5-0.431 1.5-0.871 3.04-0.228 0.771-0.456 1.54-0.691 2.34-1.98 0.33-3.96 0.66-6 1-4-5.75-4-5.75-4-8h-2l-1-4h-2v-2c-0.99-0.33-1.98-0.66-3-1 0.33-0.66 0.66-1.32 1-2h4c0.495-0.495 0.99-0.99 1.5-1.5 0.495-0.495 0.99-0.99 1.5-1.5h4v-3.25c1-3.75 1-3.75 2.85-5.11 2.02-0.989 4.04-1.87 6.15-2.64z" fill="#121C22"/>
<path transform="translate(987,314)" d="m0 0c3 1 3 1 4.25 3.25 2 3.14 4.01 4.5 7.13 6.44 1.92 1.55 2.66 3.05 3.62 5.31-0.615 0.436-1.23 0.871-1.86 1.32-4.75 3.5-8.09 6.08-10.1 11.7-1.81-0.125-1.81-0.125-4-1-1.07-1.97-2.07-3.97-3-6l-2-1v-2c-0.969-0.248-1.94-0.495-2.94-0.75-1.01-0.413-2.02-0.825-3.06-1.25-0.691-2.08-0.691-2.08-1-4 0.519-0.28 1.04-0.559 1.57-0.848 5.29-3.04 8.19-5.99 11.4-11.2z" fill="#FCFDFF"/>
<path transform="translate(1054,701)" d="m0 0c2.91 3.2 3.89 5.29 4.56 9.56-0.705 4.31-2.26 5.7-5.56 8.44-0.33 0.33-0.66 0.66-1 1-4.46 0.525-6.49 0.329-10.3-2.12-2.86-3.06-4.1-4.74-4.69-8.88 1.48-4.19 3.17-6.73 7-9 4.08-1.36 6.04-0.597 10 1z" fill="#FCFDFF"/>
<path transform="translate(403,1198)" d="m0 0c3.77 2.51 4.97 5.68 5.88 9.97 0.201 3.37-0.961 5.35-2.88 8.03-2.61 2.14-4.02 2-7.44 1.94-4.3-1.13-5.9-2.41-8.56-5.94-1.06-2.94-1.06-2.94-1-6 1.62-3.12 3.03-5.29 5.88-7.38 2.91-0.856 5.11-1 8.12-0.625z" fill="#FCFDFF"/>
<path transform="translate(1152,370)" d="m0 0c2.38 0.188 2.38 0.188 5 1 3.04 5.17 3.47 11.3 2 17v2c0.99 0.33 1.98 0.66 3 1h-3c0.257 1.44 0.531 2.88 0.812 4.31 0.151 0.801 0.302 1.6 0.457 2.43 0.829 2.57 1.59 3.64 3.73 5.26 3.61 0.73 3.61 0.73 7 1v3c1.32 0.66 2.64 1.32 4 2v3c-7.29-1.81-12.4-5.03-18-10-0.745-0.661-1.49-1.32-2.26-2-2.52-2.88-1.81-5.27-1.74-9-0.487-0.621-0.975-1.24-1.48-1.88-2.78-3.86-1.93-8.55-1.52-13.1 1-3.69 1-3.69 2-6z" fill="#121C22"/>
<path transform="translate(1016,975)" d="m0 0c2.26 1.88 2.89 3.23 3.32 6.12 0.193 3.79 0.122 6.16-1.88 9.44-3.45 2.04-5.49 2.05-9.44 1.44-3.67-2.31-5.57-3.87-7.12-7.94 0.169-4.13 1.45-5.96 4.12-9.06 4.12-2.6 6.69-2.06 11 0z" fill="#FCFDFF"/>
<path transform="translate(509,1272)" d="m0 0c3.1 2.88 3.75 5.84 4 10-0.93 3.33-2 6.14-5 8-4-0.218-7.67-0.658-11-3-1.92-2.56-2.02-3.78-1.75-7 1.21-4.85 1.21-4.85 2.75-7 3.88-2.26 6.73-2.3 11-1z" fill="#FCFDFF"/>
<path transform="translate(269,1007)" d="m0 0c3.88 3.77 7.8 7.63 11 12v2c-0.743 0.392-1.49 0.784-2.25 1.19-3.68 2.43-4.76 4.91-6.75 8.81-4.25-1.52-5.59-4.34-8-8-1.65-1.35-3.32-2.69-5-4v-2c1.64-1.11 1.64-1.11 3.81-2.31 3.52-2.09 5.44-3.87 7.19-7.69z" fill="#FCFDFF"/>
<path transform="translate(913,295)" d="m0 0c3.1 2.88 3.75 5.84 4 10-0.926 3.13-1.68 4.68-4 7-4.22 0.568-7.02 0.4-10.4-2.12-2.56-2.88-2.56-2.88-3.12-5.88 0.77-4.11 2.01-6.82 5.38-9.38 3.09-0.884 5.12-0.539 8.19 0.375z" fill="#FCFDFF"/>
<path transform="translate(306,906)" d="m0 0c2.38 2.56 3.88 4.51 4.16 8.07-0.249 3.21-0.762 5.45-2.85 7.93-3.06 1.33-5 1.47-8.31 1-3.38-1.95-4.71-3.21-6.06-6.88 0.0833-4.16 1.41-5.97 4.06-9.12 3.14-2.33 5.37-2.45 9-1z" fill="#FCFDFF"/>
<path transform="translate(1292 736)" d="m0 0c3.23 1.53 4.52 3.07 6.38 6.12 1.06 3.5 1.06 3.5 1 7-2.5 3.2-4.14 4.71-8 6-6.12-2.9-6.12-2.9-8.5-5.88-0.742-3.15-0.51-5.03 0.5-8.12 2.38-2.95 4.7-4.94 8.62-5.12z" fill="#FCFDFF"/>
<path transform="translate(316,592)" d="m0 0c2.44 2.67 2.92 4.45 3.44 8-0.563 3.86-1.49 5.43-4.44 8-4.1 0.671-6.22 0.425-9.88-1.56-2.76-3.17-3.05-5.27-3.12-9.44 0.777-2.61 1.52-3.61 3.62-5.31 3.6-1.04 6.81-0.853 10.4 0.312z" fill="#FCFDFF"/>
<path transform="translate(1073,1272)" d="m0 0c2.53 2.19 3.78 3.87 4.42 7.19 0.247 4.17 0.0989 6.15-2.55 9.5-2.88 1.31-2.88 1.31-5.88 0.875-3.52-1.83-5.64-3.35-8-6.56-0.0722-4.12 0.325-6.17 2.94-9.38 3.4-2.68 4.92-3 9.06-1.62z" fill="#FCFDFF"/>
<path transform="translate(1320,963)" d="m0 0c2.45 2.36 3.04 4.14 4 7.44 0 3.56 0 3.56-2.06 6.5-2.94 2.06-2.94 2.06-5.94 2.62-3.8-0.713-5.41-1.68-8-4.56-1.13-3.89-1.39-6.03 0.125-9.81 3.68-4.29 6.96-5.03 11.9-2.19z" fill="#FCFDFF"/>
<path transform="translate(277,656)" d="m0 0c2.89 2.6 3.86 4.17 4.5 8-0.639 3.83-1.57 5.44-4.5 8-4.1 0.671-6.22 0.425-9.88-1.56-2.8-3.22-3.2-5.19-3.12-9.44 3.71-5.89 6.28-6.62 13-5z" fill="#FCFDFF"/>
<path transform="translate(691,307)" d="m0 0c2.65 2.12 3.72 3.64 4.41 6.97 0.273 3.75-0.152 5.7-2.47 8.65-2.94 1.38-2.94 1.38-6.5 0.875-3.43-1.5-5.22-2.51-7.44-5.5-0.938-2.44-0.938-2.44-1-5 2.88-6.03 6.46-7.11 13-6z" fill="#FCFDFF"/>
<path transform="translate(657,1312)" d="m0 0c2.59 2.13 3.77 3.67 4.34 7.01 0.131 2.96 0.0359 5.34-1.47 7.93-2.86 1.62-4.54 2.13-7.88 2.06-2.93-1.53-5.08-3.3-7-6-0.21-4.07 0.378-6.07 2.62-9.44 3.36-2.21 5.43-2.2 9.38-1.56z" fill="#FCFDFF"/>
<path transform="translate(1281 1043)" d="m0 0c3.24 2.58 3.98 4.2 4.7 8.19 0.0866 3.17-0.84 4.69-2.95 7-2.31 1.5-2.31 1.5-5 2-3.54-1.2-5.54-2.5-8.06-5.25-0.938-2.75-0.938-2.75 0-6.38 2.98-4.87 5.56-7 11.3-5.56z" fill="#FCFDFF"/>
<path transform="translate(1047,1082)" d="m0 0c0.473 0.422 0.946 0.843 1.43 1.28 4.57 3.78 7.71 5.39 13.7 5.42 0.932 0.149 0.932 0.149 1.88 0.301 0.99 1.48 0.99 1.48 2 3 2.55 1.2 2.55 1.2 5 2-0.25 1.88-0.25 1.88-1 4-1.81 1.12-1.81 1.12-4 2-0.681 0.351-1.36 0.701-2.06 1.06-1.94 0.938-1.94 0.938-4.94 1.94v-3h-2c-1.59-2.2-1.59-2.2-3.38-5.12-0.617-0.999-1.23-2-1.87-3.03-0.868-1.41-0.868-1.41-1.75-2.85-1.31-2.01-2.65-4.01-4-6l1-1z" fill="#1D262C"/>
<path transform="translate(1267,566)" d="m0 0c2.45 3.68 2.7 6.72 2 11-1.95 2.88-3.04 3.8-6.44 4.5-3.47-0.678-5.11-1.98-7.56-4.5-1.06-2.38-1.06-2.38-1-5 3.7-6.64 5.58-7.59 13-6z" fill="#FCFDFF"/>
<path transform="translate(994,489)" d="m0 0c3.38 1.19 5.65 2.28 8 5h-6c-0.0947 0.88-0.0947 0.88-0.191 1.78-1.14 3.14-2.97 4-5.75 5.79-3.2 2.07-4.92 3.23-7.06 6.44h-4v-2c-0.99-0.33-1.98-0.66-3-1 0.602-2.02 1.27-4.02 2-6 2.71-1.35 5.01-1.07 8-1 0.0619-0.763 0.124-1.53 0.188-2.31 0.812-2.69 0.812-2.69 3.25-4.56 0.846-0.371 1.69-0.743 2.56-1.12 0.66 0.33 1.32 0.66 2 1v-2z" fill="#111B21"/>
<path transform="translate(1184,343)" d="m0 0c7.21 0.162 12.4 1.33 18 6 2.5 2.81 2.5 2.81 4 5-0.99 1.49-0.99 1.49-2 3-0.206-0.619-0.412-1.24-0.625-1.88-1.95-3.01-3.98-3.24-7.38-4.12-0.784-0.206-1.57-0.413-2.38-0.625-0.536-0.124-1.07-0.248-1.62-0.375v3h-2c-0.33-0.66-0.66-1.32-1-2-0.99 0.33-1.98 0.66-3 1-0.33 0.99-0.66 1.98-1 3-1.88-0.25-1.88-0.25-4-1-1.38-1.81-1.38-1.81-2-4 1.07-3.31 2.01-4.01 5-6v-1z" fill="#000610"/>
<path transform="translate(937,1311)" d="m0 0c3 0.188 3 0.188 6 1 2.68 4.02 2.16 6.24 2 11-2.69 1.69-2.69 1.69-6 3-3.33-1.21-4.62-2.39-6.5-5.38-0.5-2.62-0.5-2.62 0.75-5.31 1.75-2.31 1.75-2.31 3.75-4.31z" fill="#FCFDFF"/>
<path transform="translate(1165,355)" d="m0 0h5c0.66 1.32 1.32 2.64 2 4-0.66 0.66-1.32 1.32-2 2v3h-7v6c0.66 0.33 1.32 0.66 2 1-2.31 0.33-4.62 0.66-7 1v-2c-1.32-0.66-2.64-1.32-4-2l4-1c-0.0825-1.09-0.165-2.19-0.25-3.31 0.25-3.69 0.25-3.69 2.12-5.62 2.12-1.06 2.12-1.06 4.12-1.06 0.33-0.66 0.66-1.32 1-2z" fill="#121C22"/>
<path transform="translate(1184,342)" d="m0 0c0.33 0.99 0.66 1.98 1 3-0.619 0.248-1.24 0.495-1.88 0.75-2.48 1.46-3.08 2.63-4.12 5.25h-3c-0.66 1.32-1.32 2.64-2 4-3.44-1.25-3.44-1.25-7-3-0.938-2.19-0.938-2.19-1-4 0.99-0.33 1.98-0.66 3-1 0.66-0.99 1.32-1.98 2-3 2.02-0.73 2.02-0.73 4.38-1.19 0.771-0.159 1.54-0.317 2.34-0.48 2.29-0.332 2.29-0.332 6.29-0.332z" fill="#1A242A"/>
<path transform="translate(1175,353)" d="m0 0h2v2c0.66 0.33 1.32 0.66 2 1-0.66 0.66-1.32 1.32-2 2h-2v2h2c-0.678 2.71-1.38 4.52-3.62 6.26-1.88 1.12-1.88 1.12-5.38 2.74-0.66-0.33-1.32-0.66-2-1 0.33 0.99 0.66 1.98 1 3-0.66 0.33-1.32 0.66-2 1v-2h-2v-6h7c-0.206-0.619-0.412-1.24-0.625-1.88-0.124-0.701-0.247-1.4-0.375-2.12 0.66-0.66 1.32-1.32 2-2-0.66-1.32-1.32-2.64-2-4 1.21 0.0309 1.21 0.0309 2.44 0.0625 2.5 0.234 2.5 0.234 3.56-1.06z" fill="#000610"/>
<path transform="translate(505,434)" d="m0 0c0.33 0.66 0.66 1.32 1 2h2c0.33-0.66 0.66-1.32 1-2 1.56 4.77 2.76 8.94 2 14-3 2.44-3 2.44-6 4v-2h-2c-0.207-5.79 0.408-10.4 2-16z" fill="#101A20"/>
<path transform="translate(1212,365)" d="m0 0c2 1 2 1 2.67 2.83 2.06 9.59 2.03 19.4-2.67 28.2h-1c-0.0273-2.98-0.047-5.96-0.0625-8.94-0.00838-0.831-0.0168-1.66-0.0254-2.52-0.0192-4.94 0.234-9.74 0.871-14.6 0.273-2.08 0.273-2.08 0.217-4.91z" fill="#111B21"/>
<path transform="translate(979,418)" d="m0 0c2 3 2 3 3 5 2.32 0.407 4.66 0.744 7 1v2h-10c-0.33-0.99-0.66-1.98-1-3-0.687-0.0258-1.37-0.0516-2.08-0.0781-0.901-0.0567-1.8-0.113-2.73-0.172-1.34-0.0696-1.34-0.0696-2.71-0.141-2.48-0.609-2.48-0.609-4.3-2.66-0.388-0.645-0.776-1.29-1.18-1.95 4.12-2.06 9.68-1.36 14 0z" fill="#040E16"/>
<path transform="translate(1147,866)" d="m0 0c1.82 3.11 2.27 5.41 2.25 9 0.00516 0.846 0.0103 1.69 0.0156 2.56-0.28 2.57-0.971 4.22-2.27 6.44-1.65-0.33-3.3-0.66-5-1 0.142-1.75 0.289-3.5 0.438-5.25 0.0812-0.975 0.162-1.95 0.246-2.95 0.267-2.36 0.67-4.52 1.32-6.8h2c0.33-0.66 0.66-1.32 1-2z" fill="#111B21"/>
<path transform="translate(1066,473)" d="m0 0c4.58 0.269 6.77 2.18 9.79 5.38 1.6 2.13 1.87 4.01 2.21 6.62 1.47 2.26 1.47 2.26 3 4h-4v-3c-0.583-0.0748-1.17-0.15-1.77-0.227-3.01-1.04-4.07-2.63-5.98-5.15-0.614-0.791-1.23-1.58-1.86-2.4-1.39-2.23-1.39-2.23-1.39-5.23z" fill="#061018"/>
<path transform="translate(702,1344)" d="m0 0c0.625 3.38 0.625 3.38 1 7-0.66 0.66-1.32 1.32-2 2-3-0.125-3-0.125-6-1-1.5-1.81-1.5-1.81-2-4 1.78-5.2 4.03-5.18 9-4z" fill="#FCFDFF"/>
<path transform="translate(409,694)" d="m0 0 1 2c0.33-0.66 0.66-1.32 1-2h3c1.35 6.28 1.35 6.28-0.438 9.94-0.773 1.02-0.773 1.02-1.56 2.06-3.88-0.875-3.88-0.875-5-2 0.706-7.41 0.706-7.41 2-10z" fill="#111B21"/>
<path transform="translate(590,1287)" d="m0 0c1.94 0.562 1.94 0.562 4 2 0.875 3.5 0.875 3.5 1 7-0.66 0.66-1.32 1.32-2 2-2.26-0.354-3.95-0.975-6-2-0.875-2.31-0.875-2.31-1-5 1.94-2.31 1.94-2.31 4-4z" fill="#FCFDFF"/>
<path transform="translate(477,1006)" d="m0 0h3v5h2c1.6 3.51 2.22 6.14 2 10-0.99-0.33-1.98-0.66-3-1-0.688-2.06-0.688-2.06-1-4h-2v-2c-0.99-0.33-1.98-0.66-3-1v-2h-2v-2h2l1-2c0.33-0.33 0.66-0.66 1-1z" fill="#030A13"/>
<path transform="translate(958,1092)" d="m0 0h27c0.33 0.99 0.66 1.98 1 3-9.4 0.117-18.6-0.115-28-1v-2z" fill="#000610"/>
<path transform="translate(1074,331)" d="m0 0c3.88 1.88 3.88 1.88 5 3 0.188 2.44 0.188 2.44 0 5-0.66 0.66-1.32 1.32-2 2-2.62-0.327-4.64-0.82-7-2 0.312-2.88 0.312-2.88 1-6 0.99-0.66 1.98-1.32 3-2z" fill="#FCFDFF"/>
<path transform="translate(1137,905)" d="m0 0h5c0.0812 1.6 0.139 3.21 0.188 4.81 0.0348 0.893 0.0696 1.79 0.105 2.71-0.342 2.9-1.05 3.71-3.29 5.48-1.32-0.99-2.64-1.98-4-3 0.66-3.3 1.32-6.6 2-10z" fill="#111B21"/>
<path transform="translate(1155 468)" d="m0 0c0.598 0.206 1.2 0.413 1.81 0.625 0.625 3.38 0.625 3.38 1 7-0.66 0.66-1.32 1.32-2 2-3.01-0.389-4.4-1.26-7-3 0.312-2.38 0.312-2.38 1-5 3-2 3-2 5.19-1.62z" fill="#FCFDFF"/>
<path transform="translate(1238,1100)" d="m0 0c4.88 1.88 4.88 1.88 6 3 0.188 2.44 0.188 2.44 0 5l-2 2c-3.29-0.319-4.87-1.55-7-4 1.88-4.88 1.88-4.88 3-6z" fill="#FCFDFF"/>
<path transform="translate(814,1130)" d="m0 0h4c2 3 2 3 1.88 5.56-0.875 2.44-0.875 2.44-2.94 3.75-0.959 0.34-0.959 0.34-1.94 0.688-1.32-1.32-2.64-2.64-4-4 1.88-4.88 1.88-4.88 3-6z" fill="#FCFDFF"/>
<path transform="translate(1312,816)" d="m0 0c2.38-0.188 2.38-0.188 5 0 2 3 2 3 1.81 5.56-0.812 2.44-0.812 2.44-3.81 4.44-1.65-1.32-3.3-2.64-5-4 0.66-1.98 1.32-3.96 2-6z" fill="#FCFDFF"/>
<path transform="translate(885,796)" d="m0 0c2 1.19 2 1.19 4 3 0.5 2.5 0.5 2.5 0 5-2 1.81-2 1.81-4 3-2-1.19-2-1.19-4-3-0.5-2.5-0.5-2.5 0-5 2-1.81 2-1.81 4-3z" fill="#FCFDFF"/>
<path transform="translate(682,637)" d="m0 0 2 1c1.18 3.54 1.11 6.34 1.1 10.1-0.00212 1.03-0.00212 1.03-0.00429 2.07-0.00559 2.18-0.0181 4.36-0.0309 6.54-0.00502 1.48-0.00958 2.96-0.0137 4.44-0.011 3.62-0.0283 7.25-0.0488 10.9h-1v-18h-2v-17z" fill="#000610"/>
<path transform="translate(491 865)" d="m0 0c2 0.688 2 0.688 4 2.69-0.375 2.62-0.375 2.62-1 5-2.31 0.688-2.31 0.688-5 1-1.88-1.12-1.88-1.12-3-3 0.188-2.62 0.188-2.62 1-5 2-1 2-1 4-0.688z" fill="#FCFDFF"/>
<path transform="translate(1126,956)" d="m0 0c-0.33 2.97-0.66 5.94-1 9-4 1-4 1-6 0 0.33-2.97 0.66-5.94 1-9 4-1 4-1 6 0z" fill="#111B21"/>
<path transform="translate(976,790)" d="m0 0h6v9c-3 1-3 1-5.19 0.0625-0.598-0.351-1.2-0.701-1.81-1.06-0.125-5.75-0.125-5.75 1-8z" fill="#101A20"/>
<path transform="translate(697,891)" d="m0 0c0.908 0.784 1.82 1.57 2.75 2.38 2.3 1.93 4.47 3.45 7.25 4.62v3c-1.32-0.33-2.64-0.66-4-1-0.33 0.66-0.66 1.32-1 2v-3c-3.07 0.776-3.07 0.776-5 3-1.29-7.43-1.29-7.43 0-11z" fill="#000610"/>
<path transform="translate(281,737)" d="m0 0c2.62 0.938 2.62 0.938 5 2v6c-2.31 0.688-2.31 0.688-5 1-1.88-1.12-1.88-1.12-3-3 0.188-2.62 0.188-2.62 1-5 0.66-0.33 1.32-0.66 2-1z" fill="#FCFDFF"/>
<path transform="translate(1143,557)" d="m0 0c0.763 0.474 1.53 0.949 2.31 1.44 2.65 1.66 2.65 1.66 5.69 2.56 4 4.34 4 4.34 4 8h-2v5h-1c-0.0206-1.07-0.0412-2.14-0.0625-3.25-0.528-3.68-0.528-3.68-2.56-5.11-1.74-0.974-3.56-1.82-5.38-2.64v-2h-2c0.33-1.32 0.66-2.64 1-4z" fill="#061018"/>
<path transform="translate(1240,868)" d="m0 0h5c1.12 6.75 1.12 6.75 0 9-2.89-0.398-3.82-0.79-5.75-3.06-0.412-0.639-0.825-1.28-1.25-1.94 0.66-1.32 1.32-2.64 2-4z" fill="#101A20"/>
<path transform="translate(403,726)" d="m0 0c0.99 0.33 1.98 0.66 3 1-0.33 2.97-0.66 5.94-1 9h-6c0.488-6.05 0.488-6.05 1-8 0.99-0.66 1.98-1.32 3-2z" fill="#111B21"/>
<path transform="translate(357,1048)" d="m0 0v7h-6v-7c3.75-1.12 3.75-1.12 6 0z" fill="#111B21"/>
<path transform="translate(700,720)" d="m0 0c1.76 3.09 2 4.23 2 8-2.31 0.66-4.62 1.32-7 2v-6c3 0 3 0 5 1-0.278-0.959-0.278-0.959-0.562-1.94-0.144-0.681-0.289-1.36-0.438-2.06l1-1z" fill="#000610"/>
<path transform="translate(1284,903)" d="m0 0c0.33 0.66 0.66 1.32 1 2-1.6 0.866-3.2 1.72-4.81 2.56-0.893 0.476-1.79 0.951-2.71 1.44-2.48 0.996-2.48 0.996-5.48-0.00391 0.66-0.66 1.32-1.32 2-2 0.454-0.495 0.908-0.99 1.38-1.5 3.03-2.8 4.61-3.84 8.62-2.5z" fill="#000610"/>
<path transform="translate(1232,385)" d="m0 0c1.3 3.89 0.413 5.69-0.812 9.56-0.357 1.16-0.714 2.31-1.08 3.5-1.11 2.93-1.11 2.93-3.11 4.93 1.3-11.9 1.3-11.9 3-17 0.66-0.33 1.32-0.66 2-1z" fill="#000711"/>
<path transform="translate(790,457)" d="m0 0h14v2c-1.77 0.168-3.54 0.335-5.31 0.5-0.986 0.0928-1.97 0.186-2.99 0.281-2.7 0.219-2.7 0.219-5.7 0.219v-3z" fill="#000610"/>
<path transform="translate(645,490)" d="m0 0c-2.32 2.68-4.32 3.66-7.69 4.69-1.21 0.377-1.21 0.377-2.45 0.762-0.922 0.273-0.922 0.273-1.86 0.551v-3c4.23-2.42 7.12-3.35 12-3z" fill="#000711"/>
<path transform="translate(1129,936)" d="m0 0h3v7h-5c0.875-5.88 0.875-5.88 2-7z" fill="#101A20"/>
</svg>
